<svg width="16" height="16" viewBox="0 0 16 16" fill="none" xmlns="http://www.w3.org/2000/svg">
<path d="M10.667 7.33337C11.7737 7.33337 12.6603 6.44004 12.6603 5.33337C12.6603 4.22671 11.7737 3.33337 10.667 3.33337C9.56032 3.33337 8.66699 4.22671 8.66699 5.33337C8.66699 6.44004 9.56032 7.33337 10.667 7.33337ZM5.33366 7.33337C6.44033 7.33337 7.32699 6.44004 7.32699 5.33337C7.32699 4.22671 6.44033 3.33337 5.33366 3.33337C4.22699 3.33337 3.33366 4.22671 3.33366 5.33337C3.33366 6.44004 4.22699 7.33337 5.33366 7.33337ZM5.33366 8.66671C3.78033 8.66671 0.666992 9.44671 0.666992 11V12.6667H10.0003V11C10.0003 9.44671 6.88699 8.66671 5.33366 8.66671ZM10.667 8.66671C10.4737 8.66671 10.2537 8.68004 10.0203 8.70004C10.7937 9.26004 11.3337 10.0134 11.3337 11V12.6667H15.3337V11C15.3337 9.44671 12.2203 8.66671 10.667 8.66671Z" fill="#212121"/>
</svg>
