<svg width="14" height="13" viewBox="0 0 14 13" fill="none" xmlns="http://www.w3.org/2000/svg">
<path d="M12.3335 3.00016H10.8802C10.9535 2.7935 11.0002 2.56683 11.0002 2.3335C11.0002 1.22683 10.1068 0.333496 9.00016 0.333496C8.30016 0.333496 7.6935 0.693496 7.3335 1.2335L7.00016 1.68016L6.66683 1.22683C6.30683 0.693496 5.70016 0.333496 5.00016 0.333496C3.8935 0.333496 3.00016 1.22683 3.00016 2.3335C3.00016 2.56683 3.04683 2.7935 3.12016 3.00016H1.66683C0.926829 3.00016 0.340163 3.5935 0.340163 4.3335L0.333496 11.6668C0.333496 12.4068 0.926829 13.0002 1.66683 13.0002H12.3335C13.0735 13.0002 13.6668 12.4068 13.6668 11.6668V4.3335C13.6668 3.5935 13.0735 3.00016 12.3335 3.00016ZM9.00016 1.66683C9.36683 1.66683 9.66683 1.96683 9.66683 2.3335C9.66683 2.70016 9.36683 3.00016 9.00016 3.00016C8.6335 3.00016 8.3335 2.70016 8.3335 2.3335C8.3335 1.96683 8.6335 1.66683 9.00016 1.66683ZM5.00016 1.66683C5.36683 1.66683 5.66683 1.96683 5.66683 2.3335C5.66683 2.70016 5.36683 3.00016 5.00016 3.00016C4.6335 3.00016 4.3335 2.70016 4.3335 2.3335C4.3335 1.96683 4.6335 1.66683 5.00016 1.66683ZM12.3335 11.6668H1.66683V10.3335H12.3335V11.6668ZM12.3335 8.3335H1.66683V4.3335H5.0535L3.66683 6.22016L4.74683 7.00016L7.00016 3.9335L9.2535 7.00016L10.3335 6.22016L8.94683 4.3335H12.3335V8.3335Z" fill="#1E88E5"/>
</svg>
