<svg width="14" height="14" viewBox="0 0 14 14" fill="none" xmlns="http://www.w3.org/2000/svg">
<path d="M6.99381 0.333374C3.31381 0.333374 0.327148 3.32004 0.327148 7.00004C0.327148 10.68 3.31381 13.6667 6.99381 13.6667C10.6738 13.6667 13.6605 10.68 13.6605 7.00004C13.6605 3.32004 10.6738 0.333374 6.99381 0.333374ZM9.40048 4.56004C10.1138 4.56004 10.6871 5.13337 10.6871 5.84671C10.6871 6.56004 10.1138 7.13337 9.40048 7.13337C8.68715 7.13337 8.11381 6.56004 8.11381 5.84671C8.10715 5.13337 8.68715 4.56004 9.40048 4.56004ZM5.40048 3.50671C6.26715 3.50671 6.97381 4.21337 6.97381 5.08004C6.97381 5.94671 6.26715 6.65337 5.40048 6.65337C4.53382 6.65337 3.82715 5.94671 3.82715 5.08004C3.82715 4.20671 4.52715 3.50671 5.40048 3.50671ZM5.40048 9.59337V12.0934C3.80048 11.5934 2.53381 10.36 1.97382 8.78671C2.67382 8.04004 4.42048 7.66004 5.40048 7.66004C5.75382 7.66004 6.20048 7.71337 6.66715 7.80671C5.57381 8.38671 5.40048 9.15337 5.40048 9.59337ZM6.99381 12.3334C6.81381 12.3334 6.64048 12.3267 6.46715 12.3067V9.59337C6.46715 8.64671 8.42715 8.17337 9.40048 8.17337C10.1138 8.17337 11.3471 8.43337 11.9605 8.94004C11.1805 10.92 9.25381 12.3334 6.99381 12.3334Z" fill="#212121"/>
</svg>
