<svg width="12" height="14" viewBox="0 0 12 14" fill="none" xmlns="http://www.w3.org/2000/svg">
<path d="M7.33366 0.333374H2.00033C1.26699 0.333374 0.673659 0.933374 0.673659 1.66671L0.666992 12.3334C0.666992 13.0667 1.26033 13.6667 1.99366 13.6667H10.0003C10.7337 13.6667 11.3337 13.0667 11.3337 12.3334V4.33337L7.33366 0.333374ZM8.00033 7.00004H5.33366V7.66671H7.33366C7.70033 7.66671 8.00033 7.96671 8.00033 8.33337V10.3334C8.00033 10.7 7.70033 11 7.33366 11H6.66699V11.6667H5.33366V11H4.00033V9.66671H6.66699V9.00004H4.66699C4.30033 9.00004 4.00033 8.70004 4.00033 8.33337V6.33337C4.00033 5.96671 4.30033 5.66671 4.66699 5.66671H5.33366V5.00004H6.66699V5.66671H8.00033V7.00004ZM6.66699 4.33337V1.33337L9.66699 4.33337H6.66699Z" fill="#1E88E5"/>
</svg>
