<svg width="280" height="200" viewBox="0 0 280 200" fill="none" xmlns="http://www.w3.org/2000/svg">
<g clip-path="url(#clip0)">
<path d="M255.671 179.918C258.127 184.266 256.044 198.954 256.044 198.954C256.044 198.954 242.408 193.171 239.952 188.824C238.776 186.736 238.475 184.266 239.116 181.956C239.757 179.646 241.287 177.685 243.371 176.505C245.454 175.324 247.919 175.021 250.226 175.661C252.532 176.301 254.491 177.832 255.671 179.918V179.918Z" fill="#F1F1F1"/>
<path d="M256.242 198.935L255.952 198.996C253.162 185.716 243.418 176.71 243.32 176.621L243.519 176.401C243.618 176.491 253.431 185.558 256.242 198.935Z" fill="white"/>
<path d="M277.984 184.869C274.652 190.925 255.864 199.129 255.864 199.129C255.864 199.129 252.767 178.834 256.097 172.78C257.697 169.872 260.385 167.72 263.569 166.798C266.753 165.876 270.172 166.258 273.075 167.861C275.977 169.465 278.125 172.157 279.046 175.347C279.966 178.536 279.584 181.962 277.984 184.869Z" fill="#F1F1F1"/>
<path d="M256.03 199.349L255.748 199.051C269.343 186.117 272.862 168.077 272.896 167.896L273.299 167.972C273.265 168.154 269.724 186.32 256.03 199.349Z" fill="white"/>
<path d="M65.8285 139.013C63.6784 139.006 61.5377 138.729 59.4565 138.188L59.0464 138.074L58.6659 137.883C44.9091 130.973 33.3032 121.846 24.1706 110.756C16.6108 101.521 10.7168 91.0365 6.75363 79.7728C2.01434 66.2875 -0.265718 52.0583 0.0222913 37.7645C0.0281027 37.4644 0.0330211 37.2327 0.0330211 37.0731C0.0330211 30.1248 3.88295 24.0282 9.84114 21.5411C14.4012 19.6376 55.8048 2.60095 58.7964 1.37C64.4302 -1.45798 70.4405 0.902416 71.4023 1.31519C73.5597 2.19883 111.835 17.882 120.106 21.8276C128.63 25.8941 130.905 33.1994 130.905 36.8748C130.905 53.5146 128.028 69.0658 122.355 83.0965C117.773 94.4533 111.279 104.938 103.156 114.093C87.4827 131.762 71.8058 138.026 71.6545 138.081C69.7809 138.727 67.8097 139.043 65.8285 139.013ZM62.1418 129.865C63.501 130.17 66.6301 130.628 68.6697 129.883C71.2607 128.936 84.382 122.12 96.6435 108.296C113.585 89.1974 122.181 65.1884 122.193 36.9362C122.163 36.3638 121.757 32.2814 116.361 29.7072C108.25 25.8379 68.4661 9.54114 68.0652 9.37689L67.9553 9.33021C67.1215 8.98021 64.4682 8.24298 62.6392 9.20315L62.273 9.37419C61.8295 9.55665 17.8791 27.6405 13.1918 29.597C9.91288 30.9657 8.7446 34.3564 8.7446 37.0732C8.7446 37.2717 8.73947 37.5605 8.73223 37.9338C8.35761 57.265 12.8229 104.833 62.1418 129.865Z" fill="#3F3D56"/>
<path d="M60.6184 5.33786C60.6184 5.33786 16.2685 23.5857 11.5167 25.5692C6.76494 27.5527 4.38906 32.313 4.38906 37.0733C4.38906 41.8336 0.825241 103.949 60.6184 133.982C60.6184 133.982 66.0452 135.486 70.1624 133.982C74.2797 132.478 126.549 107.09 126.549 36.875C126.549 36.875 126.549 29.7345 118.234 25.7676C109.918 21.8006 69.7134 5.33786 69.7134 5.33786C69.7134 5.33786 64.7761 3.15605 60.6184 5.33786Z" fill="#1E88E5"/>
<path opacity="0.1" d="M65.37 19.6187V116.965C65.37 116.965 20.6242 95.387 21.0202 38.6599L65.37 19.6187Z" fill="black"/>
<path d="M82.5417 58.3332L73.3751 67.4998H80.2501C80.2501 75.0853 74.0855 81.2498 66.5001 81.2498C64.1855 81.2498 61.9855 80.6769 60.0834 79.6457L56.7376 82.9915C59.5563 84.779 62.9022 85.8332 66.5001 85.8332C76.6292 85.8332 84.8334 77.629 84.8334 67.4998H91.7084L82.5417 58.3332ZM52.7501 67.4998C52.7501 59.9144 58.9147 53.7498 66.5001 53.7498C68.8147 53.7498 71.0147 54.3228 72.9167 55.354L76.2626 52.0082C73.4438 50.2207 70.098 49.1665 66.5001 49.1665C56.3709 49.1665 48.1667 57.3707 48.1667 67.4998H41.2917L50.4584 76.6665L59.6251 67.4998H52.7501Z" fill="white"/>
<path d="M279.658 200H149.413C149.322 200 149.235 199.964 149.171 199.9C149.107 199.835 149.071 199.748 149.071 199.657C149.071 199.567 149.107 199.479 149.171 199.415C149.235 199.351 149.322 199.315 149.413 199.315H279.658C279.749 199.315 279.836 199.351 279.9 199.415C279.964 199.479 280 199.567 280 199.657C280 199.748 279.964 199.835 279.9 199.9C279.836 199.964 279.749 200 279.658 200Z" fill="#CACACA"/>
<path d="M187.063 194.602L192.35 194.601L194.865 174.172L187.062 174.173L187.063 194.602Z" fill="#FFB8B8"/>
<path d="M185.714 192.872L196.126 192.872H196.126C197.886 192.872 199.574 193.572 200.818 194.819C202.063 196.066 202.762 197.756 202.762 199.519V199.735L185.714 199.736L185.714 192.872Z" fill="#2F2E41"/>
<path d="M204.839 194.602L210.126 194.601L212.641 174.172L204.838 174.173L204.839 194.602Z" fill="#FFB8B8"/>
<path d="M203.49 192.872L213.902 192.872H213.903C215.663 192.872 217.35 193.572 218.595 194.819C219.839 196.066 220.538 197.756 220.538 199.519V199.735L203.491 199.736L203.49 192.872Z" fill="#2F2E41"/>
<path d="M195.373 122.86L196.641 187.671L186.382 187.034L179.264 145.752L177.016 117.605L195.373 122.86Z" fill="#2F2E41"/>
<path d="M212.98 111.976L214.417 188.698L202.452 188.356L199.868 142.75L195.373 126.237L177.017 117.605L180.014 96.9646L206.986 96.5894L212.98 111.976Z" fill="#2F2E41"/>
<path d="M192.351 43.2984C197.418 43.2984 201.526 39.1833 201.526 34.1072C201.526 29.031 197.418 24.916 192.351 24.916C187.284 24.916 183.177 29.031 183.177 34.1072C183.177 39.1833 187.284 43.2984 192.351 43.2984Z" fill="#FFB8B8"/>
<path d="M199.961 47.1709L201.366 49.3038L205.113 59.8117L202.116 100.718L184.509 101.093L182.261 54.1822L186.97 48.2863L199.961 47.1709Z" fill="#CCCCCC"/>
<path d="M175.143 55.3079L172.146 54.9326C172.146 54.9326 171.397 55.3079 171.023 57.9349C170.648 60.5619 166.153 83.8298 166.153 83.8298L172.146 112.352L178.889 103.345L174.769 87.5827L178.889 71.8206L175.143 55.3079Z" fill="#2F2E41"/>
<path d="M213.354 54.9331H215.602L221.221 85.331L215.976 108.974L210.732 100.343L212.23 90.9605L211.481 82.7043L208.859 77.8252L213.354 54.9331Z" fill="#2F2E41"/>
<path d="M197.773 34.1073L196.104 33.6895C196.104 33.6895 194.853 26.5872 191.934 27.4228C189.015 28.2583 181.508 29.0939 181.508 25.7516C181.508 22.4094 188.598 19.4849 192.768 19.9027C196.938 20.3205 202.265 21.7065 203.611 27.8405C205.769 37.6738 199.158 40.1575 199.158 40.1575L199.268 39.7995C199.573 38.8054 199.595 37.7455 199.331 36.7396C199.067 35.7337 198.527 34.8219 197.773 34.1073Z" fill="#2F2E41"/>
<path d="M172.521 54.9325L184.509 50.0537L187.318 47.9896L195.747 85.3308L199.681 46.8638L215.227 54.9325L209.983 80.452L209.233 90.2095L211.481 98.0905C211.481 98.0905 219.348 103.72 216.726 109.724C214.103 115.729 211.106 116.104 211.106 116.104C211.106 116.104 198.37 104.095 197.62 101.093C196.871 98.0905 195.747 92.8365 195.747 92.8365C195.747 92.8365 189.379 116.855 181.887 116.48C174.394 116.104 174.394 108.223 174.394 108.223L176.267 99.967L179.264 91.3353L177.766 77.0744L172.521 54.9325Z" fill="#2F2E41"/>
</g>
<defs>
<clipPath id="clip0">
<rect width="280" height="200" fill="white"/>
</clipPath>
</defs>
</svg>
