<svg width="80" height="80" viewBox="0 0 80 80" fill="none" xmlns="http://www.w3.org/2000/svg">
<circle opacity="0.24" cx="40" cy="40" r="40" fill="#FFC400"/>
<g filter="url(#filter0_d)">
<circle cx="40" cy="40" r="32" fill="#FFC400"/>
</g>
<path d="M41.333 28C34.7063 28 29.333 33.3733 29.333 40H25.333L30.5197 45.1867L30.613 45.3733L35.9997 40H31.9997C31.9997 34.84 36.173 30.6667 41.333 30.6667C46.493 30.6667 50.6663 34.84 50.6663 40C50.6663 45.16 46.493 49.3333 41.333 49.3333C38.7597 49.3333 36.4263 48.28 34.7463 46.5867L32.853 48.48C35.0263 50.6533 38.013 52 41.333 52C47.9597 52 53.333 46.6267 53.333 40C53.333 33.3733 47.9597 28 41.333 28ZM39.9997 34.6667V41.3333L45.7063 44.72L46.6663 43.1067L41.9997 40.3333V34.6667H39.9997Z" fill="white"/>
<defs>
<filter id="filter0_d" x="4" y="4" width="72" height="72" filterUnits="userSpaceOnUse" color-interpolation-filters="sRGB">
<feFlood flood-opacity="0" result="BackgroundImageFix"/>
<feColorMatrix in="SourceAlpha" type="matrix" values="0 0 0 0 0 0 0 0 0 0 0 0 0 0 0 0 0 0 127 0"/>
<feOffset/>
<feGaussianBlur stdDeviation="2"/>
<feColorMatrix type="matrix" values="0 0 0 0 0 0 0 0 0 0 0 0 0 0 0 0 0 0 0.08 0"/>
<feBlend mode="normal" in2="BackgroundImageFix" result="effect1_dropShadow"/>
<feBlend mode="normal" in="SourceGraphic" in2="effect1_dropShadow" result="shape"/>
</filter>
</defs>
</svg>
