<svg width="277" height="200" viewBox="0 0 277 200" fill="none" xmlns="http://www.w3.org/2000/svg">
<path d="M128.466 192.635C128.775 195.046 129.91 197.251 131.121 199.375C131.161 199.448 131.203 199.519 131.245 199.591H143.835C144.089 199.525 144.341 199.453 144.591 199.375C146.013 198.944 147.355 198.286 148.566 197.427C153.198 194.102 154.98 187.82 154.175 182.191C153.675 178.693 152.134 175.123 149.134 173.239C147.505 172.251 145.561 171.911 143.692 172.289C143.644 172.298 143.596 172.309 143.548 172.318C142.769 172.468 142.032 172.781 141.384 173.235C140.735 173.689 140.191 174.275 139.786 174.953C138.356 177.485 139.207 180.62 139.91 183.438C140.611 186.255 140.992 189.627 138.957 191.705C139.255 190.836 139.316 189.903 139.132 189.003C138.949 188.103 138.528 187.268 137.914 186.584C137.299 185.899 136.513 185.39 135.635 185.109C134.758 184.828 133.821 184.784 132.921 184.983C132.774 185.015 132.628 185.05 132.485 185.093C132.14 185.194 131.806 185.333 131.492 185.508C129.092 186.843 128.12 189.918 128.466 192.635Z" fill="#F2F2F2"/>
<path d="M135.93 199.375C135.581 199.456 135.232 199.527 134.879 199.591H136.783C137.032 199.524 137.28 199.453 137.526 199.375C138.067 199.207 138.599 199.013 139.123 198.795C141.249 197.936 143.136 196.58 144.626 194.843C145.343 193.992 145.928 193.04 146.362 192.018C146.833 190.862 147.132 189.644 147.25 188.403C147.466 185.836 147.294 183.251 146.739 180.736C146.217 178.142 145.374 175.624 144.23 173.237C144.092 172.951 143.95 172.667 143.803 172.384C143.793 172.361 143.777 172.34 143.758 172.324C143.739 172.307 143.716 172.295 143.691 172.289C143.641 172.279 143.589 172.29 143.547 172.318C143.496 172.347 143.459 172.395 143.442 172.45C143.425 172.506 143.431 172.566 143.457 172.618C144.637 174.911 145.531 177.338 146.12 179.846C146.727 182.306 146.993 184.838 146.912 187.37C146.869 189.725 146.131 192.015 144.791 193.955C143.487 195.703 141.773 197.104 139.798 198.037C138.563 198.625 137.266 199.074 135.93 199.375Z" fill="white"/>
<path d="M131.752 199.591H132.314C132.377 199.52 132.437 199.448 132.497 199.375C133.775 197.828 134.641 195.984 135.015 194.015C135.468 191.557 135.116 189.02 134.008 186.777C133.699 186.149 133.335 185.548 132.92 184.983C132.773 185.015 132.628 185.05 132.485 185.094C134.07 187.168 134.883 189.726 134.785 192.331C134.686 194.936 133.683 197.426 131.946 199.375C131.884 199.448 131.819 199.52 131.752 199.591Z" fill="white"/>
<path d="M274.409 67.166L217.946 87.5668L193.496 20.4009L249.958 0L274.409 67.166Z" fill="#F1F1F1"/>
<path d="M274.409 67.166L217.946 87.5668L193.496 20.4009L249.958 0L274.409 67.166Z" fill="#F1F1F1"/>
<path d="M250.189 32.5882L217.907 44.2522L218.461 45.7728L250.743 34.1088L250.189 32.5882Z" fill="white"/>
<path d="M251.628 36.5418L219.347 48.2058L219.9 49.7264L252.182 38.0624L251.628 36.5418Z" fill="white"/>
<path d="M253.068 40.4952L220.786 52.1592L221.339 53.6798L253.621 42.0158L253.068 40.4952Z" fill="white"/>
<path d="M215.641 47.2389C216.226 47.2389 216.7 46.7663 216.7 46.1833C216.7 45.6003 216.226 45.1277 215.641 45.1277C215.055 45.1277 214.581 45.6003 214.581 46.1833C214.581 46.7663 215.055 47.2389 215.641 47.2389Z" fill="white"/>
<path d="M243.988 15.5525L211.706 27.2166L212.26 28.7371L244.541 17.0731L243.988 15.5525Z" fill="white"/>
<path d="M245.427 19.5059L213.145 31.1699L213.699 32.6905L245.98 21.0265L245.427 19.5059Z" fill="white"/>
<path d="M246.866 23.4595L214.584 35.1235L215.138 36.6441L247.419 24.9801L246.866 23.4595Z" fill="white"/>
<path d="M209.379 30.0382C209.964 30.0382 210.438 29.5656 210.438 28.9826C210.438 28.3996 209.964 27.927 209.379 27.927C208.794 27.927 208.319 28.3996 208.319 28.9826C208.319 29.5656 208.794 30.0382 209.379 30.0382Z" fill="white"/>
<path d="M256.451 49.7891L224.169 61.4531L224.722 62.9737L257.004 51.3097L256.451 49.7891Z" fill="white"/>
<path d="M257.89 53.743L225.608 65.407L226.162 66.9276L258.444 55.2636L257.89 53.743Z" fill="white"/>
<path d="M259.329 57.6963L227.047 69.3604L227.601 70.8809L259.883 59.2169L259.329 57.6963Z" fill="white"/>
<path d="M221.842 64.2751C222.427 64.2751 222.902 63.8024 222.902 63.2194C222.902 62.6364 222.427 62.1638 221.842 62.1638C221.257 62.1638 220.783 62.6364 220.783 63.2194C220.783 63.8024 221.257 64.2751 221.842 64.2751Z" fill="white"/>
<path d="M277 87.561H216.939V16.1143H277V87.561Z" fill="white"/>
<path d="M277 87.561H216.939V16.1143H277V87.561ZM217.999 86.5054H275.94V17.1699H217.999V86.5054Z" fill="#E5E5E5"/>
<path d="M256.619 42.5215H241.564C241.352 42.5212 241.148 42.4371 240.998 42.2875C240.848 42.1379 240.763 41.9351 240.763 41.7236V26.7243C240.763 26.5128 240.848 26.31 240.998 26.1605C241.148 26.0109 241.352 25.9268 241.564 25.9265H256.619C256.832 25.9268 257.035 26.0109 257.185 26.1605C257.336 26.31 257.42 26.5128 257.42 26.7243V41.7236C257.42 41.9351 257.336 42.1379 257.185 42.2875C257.035 42.4371 256.832 42.5212 256.619 42.5215ZM241.564 26.2456C241.437 26.2458 241.314 26.2963 241.224 26.386C241.134 26.4757 241.084 26.5974 241.084 26.7243V41.7236C241.084 41.8505 241.134 41.9722 241.224 42.062C241.314 42.1517 241.437 42.2022 241.564 42.2023H256.619C256.747 42.2022 256.869 42.1517 256.959 42.062C257.049 41.9722 257.1 41.8505 257.1 41.7236V26.7244C257.1 26.5974 257.049 26.4758 256.959 26.386C256.869 26.2963 256.747 26.2458 256.619 26.2456H241.564Z" fill="#E5E5E5"/>
<path d="M252.295 44.3563H237.24C237.049 44.3561 236.866 44.2803 236.73 44.1457C236.595 44.0111 236.519 43.8286 236.519 43.6382V28.639C236.519 28.4486 236.595 28.2661 236.73 28.1315C236.866 27.9968 237.049 27.9211 237.24 27.9209H252.295C252.486 27.9211 252.669 27.9968 252.805 28.1315C252.94 28.2661 253.016 28.4486 253.016 28.639V43.6382C253.016 43.8286 252.94 44.0111 252.805 44.1457C252.669 44.2803 252.486 44.3561 252.295 44.3563Z" fill="#1E88E5"/>
<path d="M267.977 50.7126H225.963V52.3302H267.977V50.7126Z" fill="#F1F1F1"/>
<path d="M267.977 54.9299H225.963V56.5474H267.977V54.9299Z" fill="#F1F1F1"/>
<path d="M267.977 59.1472H225.963V60.7647H267.977V59.1472Z" fill="#F1F1F1"/>
<path d="M267.977 66.5698H225.963V68.1873H267.977V66.5698Z" fill="#F1F1F1"/>
<path d="M267.977 70.7871H225.963V72.4046H267.977V70.7871Z" fill="#F1F1F1"/>
<path d="M267.977 75.0046H225.963V76.6221H267.977V75.0046Z" fill="#F1F1F1"/>
<path d="M80.9129 195.393H85.3315L87.4338 178.413L80.9121 178.413L80.9129 195.393Z" fill="#FFB8B8"/>
<path d="M79.7856 193.956L88.4877 193.956H88.488C89.9587 193.956 91.3692 194.538 92.4092 195.574C93.4492 196.61 94.0335 198.015 94.0336 199.48V199.66L79.7859 199.66L79.7856 193.956Z" fill="#2F2E41"/>
<path d="M49.9668 192.378L54.256 193.436L60.3913 177.456L54.061 175.895L49.9668 192.378Z" fill="#FFB8B8"/>
<path d="M49.2192 190.713L57.6664 192.796L57.6667 192.796C59.0944 193.148 60.3232 194.051 61.0828 195.305C61.8425 196.56 62.0708 198.064 61.7175 199.486L61.6742 199.661L47.8438 196.251L49.2192 190.713Z" fill="#2F2E41"/>
<path d="M66.3127 123.351L62.4272 145.386C62.4272 145.386 60.9328 148.066 61.5306 149.257C62.1284 150.448 62.4272 150.448 61.5306 151.043C60.634 151.639 59.4384 151.043 59.7373 152.532C59.9164 153.415 60.0165 154.312 60.0362 155.212L51.6676 183.798C51.6676 183.798 46.2877 186.18 50.1732 187.669C54.0586 189.157 57.944 190.349 58.8407 188.86C59.7373 187.371 58.8407 185.584 58.8407 185.584L72.5891 152.83C72.5891 152.83 74.6813 149.852 74.6813 148.066C74.6813 146.279 81.5555 133.475 81.5555 133.475C81.5555 133.475 81.8544 146.279 82.1533 147.173C82.4522 148.066 81.5555 149.852 81.5555 151.043C81.5555 152.235 80.9578 152.235 81.5555 152.83C82.1533 153.426 82.1533 160.274 82.1533 160.274C82.1533 160.274 78.5667 186.775 80.6589 187.073C82.751 187.371 88.7286 186.775 88.7286 185.584C88.7548 185.274 88.6822 184.963 88.5213 184.696C88.3604 184.429 88.1193 184.219 87.832 184.095L91.7174 161.465C91.5544 160.562 91.6582 159.631 92.0163 158.785C92.6141 157.594 92.6141 157.594 92.6141 156.999C92.6141 156.403 92.3152 156.105 92.6141 155.808C92.8093 155.551 92.9143 155.237 92.9129 154.914C92.9129 154.914 92.3152 153.128 92.6141 152.83C92.9129 152.532 99.4883 130.2 97.3961 127.52C95.304 124.84 66.3127 123.351 66.3127 123.351Z" fill="#2F2E41"/>
<path d="M79.6796 75.8014C83.9713 75.8014 87.4504 72.3353 87.4504 68.0595C87.4504 63.7838 83.9713 60.3176 79.6796 60.3176C75.3878 60.3176 71.9087 63.7838 71.9087 68.0595C71.9087 72.3353 75.3878 75.8014 79.6796 75.8014Z" fill="#FFB8B8"/>
<path d="M74.1895 73.6658C74.5891 73.3989 74.6045 72.788 74.4706 72.2924C74.2782 71.8171 74.1581 71.3159 74.1141 70.8052C74.1713 69.4238 76.0811 68.8696 76.1902 67.4949C76.2573 66.6495 75.5987 65.7146 75.9788 64.9826C76.2188 64.5203 76.7769 64.3661 77.2851 64.2774C79.2576 63.938 81.2761 63.965 83.2387 64.357L83.5251 63.6077L84.9795 64.5638C85.059 64.0988 85.705 64.0522 86.1273 64.2754C86.5496 64.4985 86.9151 64.8839 87.3759 64.9584C88.1103 65.077 88.6908 64.2846 88.652 63.5222C88.5426 62.7509 88.1951 62.0326 87.6575 61.467C86.4343 59.9576 84.9504 58.6778 83.2757 57.688L83.6793 56.9635L82.815 57.3093L82.7202 56.4427L81.8781 56.9143L81.8661 56.1338C80.9645 57.1652 79.3945 57.1296 78.0162 57.2226C75.7121 57.3289 73.4987 58.1488 71.6845 59.5679C70.7789 60.3046 70.0372 61.2211 69.5067 62.2591C68.9761 63.297 68.6684 64.4337 68.6032 65.5967C68.5249 67.418 69.1552 69.6348 70.505 70.9855C71.732 72.2131 73.5499 71.4681 74.1895 73.6658Z" fill="#2F2E41"/>
<path d="M98.7474 143.174C98.3528 142.805 98.0442 142.355 97.8433 141.854C97.6423 141.354 97.5539 140.816 97.5843 140.278C97.6147 139.74 97.7632 139.215 98.0192 138.74C98.2753 138.265 98.6327 137.852 99.0663 137.53L96.9937 129.363L101.668 126.897L104.433 138.472C104.928 139.234 105.125 140.15 104.988 141.047C104.85 141.944 104.387 142.759 103.686 143.339C102.985 143.918 102.096 144.221 101.185 144.191C100.275 144.161 99.4076 143.799 98.7474 143.174V143.174Z" fill="#FFB8B8"/>
<path d="M86.2538 132.604C76.8079 132.605 68.1131 128.346 67.9957 128.287L67.8982 128.239L67.1056 109.286C66.8757 108.616 62.3494 95.401 61.5828 91.2005C60.8061 86.9448 72.0629 83.2099 73.4298 82.7731L73.74 79.3496L86.3547 77.9954L87.9535 82.3759L92.4791 84.0665C92.9921 84.2583 93.4167 84.631 93.6724 85.1139C93.9281 85.5967 93.9972 86.1563 93.8664 86.6865L91.3512 96.877L96.2987 130.592L96.1717 130.649C93.0424 131.995 89.6616 132.661 86.2538 132.604Z" fill="#1E88E5"/>
<path d="M97.5318 134.72L93.1541 116.765L88.4092 95.0986L90.8178 84.3H92.8769C92.9147 84.3 96.6566 84.3558 97.4623 89.1715C98.2426 93.8359 100.596 108.681 100.619 108.83L104.596 134.188L97.5318 134.72Z" fill="#1E88E5"/>
<path d="M156.822 200H0.410528C0.301649 200 0.197223 199.957 0.120234 199.88C0.0432454 199.804 0 199.7 0 199.591C0 199.483 0.0432454 199.379 0.120234 199.302C0.197223 199.225 0.301649 199.182 0.410528 199.182H156.822C156.931 199.182 157.035 199.225 157.112 199.302C157.189 199.379 157.232 199.483 157.232 199.591C157.232 199.7 157.189 199.804 157.112 199.88C157.035 199.957 156.931 200 156.822 200Z" fill="#CBCBCB"/>
<path d="M89.7595 158.849L49.5239 132.747L81.7506 83.4399L121.986 109.542L89.7595 158.849Z" fill="white"/>
<path d="M89.7595 158.849L49.5239 132.747L81.7506 83.4399L121.986 109.542L89.7595 158.849ZM50.7313 132.493L89.5044 157.646L120.779 109.796L82.0057 84.6428L50.7313 132.493Z" fill="#E5E5E5"/>
<path d="M78.1012 111.257L77.3716 112.373L99.856 126.959L100.586 125.843L78.1012 111.257Z" fill="#1E88E5"/>
<path d="M76.2047 114.16L75.4751 115.276L97.9595 129.862L98.6891 128.746L76.2047 114.16Z" fill="#1E88E5"/>
<path d="M74.3077 117.061L73.5781 118.177L96.0626 132.764L96.7922 131.647L74.3077 117.061Z" fill="#1E88E5"/>
<path d="M75.7032 111.598C76.1851 111.598 76.5758 111.208 76.5758 110.728C76.5758 110.248 76.1851 109.859 75.7032 109.859C75.2212 109.859 74.8306 110.248 74.8306 110.728C74.8306 111.208 75.2212 111.598 75.7032 111.598Z" fill="#1E88E5"/>
<path d="M86.2755 98.7504L85.5459 99.8667L108.03 114.453L108.76 113.337L86.2755 98.7504Z" fill="#E5E5E5"/>
<path d="M84.3785 101.653L83.6489 102.769L106.133 117.355L106.863 116.239L84.3785 101.653Z" fill="#E5E5E5"/>
<path d="M82.4815 104.556L81.752 105.672L104.236 120.258L104.966 119.142L82.4815 104.556Z" fill="#E5E5E5"/>
<path d="M83.9566 98.9704C84.4385 98.9704 84.8292 98.5812 84.8292 98.101C84.8292 97.6209 84.4385 97.2317 83.9566 97.2317C83.4747 97.2317 83.084 97.6209 83.084 98.101C83.084 98.5812 83.4747 98.9704 83.9566 98.9704Z" fill="#E5E5E5"/>
<path d="M69.8482 123.884L69.1187 125L91.6031 139.586L92.3327 138.47L69.8482 123.884Z" fill="#E5E5E5"/>
<path d="M67.9513 126.786L67.2217 127.903L89.7061 142.489L90.4357 141.373L67.9513 126.786Z" fill="#E5E5E5"/>
<path d="M66.0543 129.689L65.3247 130.805L87.8092 145.391L88.5387 144.275L66.0543 129.689Z" fill="#E5E5E5"/>
<path d="M67.5293 124.104C68.0113 124.104 68.4019 123.715 68.4019 123.235C68.4019 122.754 68.0113 122.365 67.5293 122.365C67.0474 122.365 66.6567 122.754 66.6567 123.235C66.6567 123.715 67.0474 124.104 67.5293 124.104Z" fill="#E5E5E5"/>
<path d="M78.7994 131.685C78.7738 131.147 78.6301 130.621 78.3783 130.144C78.1265 129.667 77.7728 129.251 77.342 128.925C76.9113 128.599 76.4141 128.371 75.8854 128.257C75.3566 128.143 74.8093 128.146 74.2818 128.266L69.3886 121.395L64.4727 123.34L71.5197 132.945C71.7802 133.814 72.3517 134.558 73.1261 135.036C73.9004 135.514 74.8237 135.692 75.7211 135.537C76.6184 135.381 77.4274 134.904 77.9947 134.194C78.5621 133.484 78.8484 132.592 78.7994 131.685Z" fill="#FFB8B8"/>
<path d="M69.2628 131.176L54.4565 112.04L60.0043 94.6692C60.4109 90.3019 63.1539 89.0825 63.2706 89.0326L63.4487 88.9565L68.2763 101.782L64.7317 111.199L73.4317 125.777L69.2628 131.176Z" fill="#1E88E5"/>
<path d="M163.967 127.198H161.504V128.016H163.967V127.198Z" fill="#CBCBCB"/>
<path d="M233.319 128.016H228.365V127.198H233.319V128.016ZM223.412 128.016H218.458V127.198H223.412L223.412 128.016ZM213.504 128.016H208.551V127.198H213.504V128.016ZM203.597 128.016H198.643V127.198H203.597V128.016ZM193.689 128.016H188.736V127.198H193.689V128.016ZM183.782 128.016H178.828V127.198H183.782V128.016ZM173.875 128.016H168.921V127.198H173.875V128.016Z" fill="#CBCBCB"/>
<path d="M241.147 128.016H238.273V127.198H240.326V125.153H241.147V128.016Z" fill="#CBCBCB"/>
<path d="M241.147 120.188H240.326V122.671H241.147V120.188Z" fill="#CBCBCB"/>
<path d="M241.147 115.251H240.326V117.705H241.147V115.251Z" fill="#CBCBCB"/>
</svg>
