<svg width="16" height="16" viewBox="0 0 16 16" fill="none" xmlns="http://www.w3.org/2000/svg">
<path d="M6.66634 10.6667V10H2.00634L1.99967 12.6667C1.99967 13.4067 2.59301 14 3.33301 14H12.6663C13.4063 14 13.9997 13.4067 13.9997 12.6667V10H9.33301V10.6667H6.66634ZM13.333 4.66667H10.6597V3.33333L9.32634 2H6.65967L5.32634 3.33333V4.66667H2.66634C1.93301 4.66667 1.33301 5.26667 1.33301 6V8C1.33301 8.74 1.92634 9.33333 2.66634 9.33333H6.66634V8H9.33301V9.33333H13.333C14.0663 9.33333 14.6663 8.73333 14.6663 8V6C14.6663 5.26667 14.0663 4.66667 13.333 4.66667ZM9.33301 4.66667H6.66634V3.33333H9.33301V4.66667Z" fill="#1E88E5"/>
</svg>
