<svg width="34" height="34" viewBox="0 0 34 34" fill="none" xmlns="http://www.w3.org/2000/svg">
<path d="M15.3333 20.3333H12C12 12.05 18.7167 5.33333 27 5.33333V8.66666C20.55 8.66666 15.3333 13.8833 15.3333 20.3333ZM27 15.3333V12C22.4 12 18.6667 15.7333 18.6667 20.3333H22C22 17.5667 24.2333 15.3333 27 15.3333ZM8.66668 3.66666C8.66668 1.81666 7.18334 0.333328 5.33334 0.333328C3.48334 0.333328 2.00001 1.81666 2.00001 3.66666C2.00001 5.51666 3.48334 7 5.33334 7C7.18334 7 8.66668 5.51666 8.66668 3.66666ZM16.0833 4.5H12.75C12.35 6.86666 10.3167 8.66666 7.83334 8.66666H2.83334C1.45001 8.66666 0.333344 9.78333 0.333344 11.1667V15.3333H10.3333V11.5667C13.4333 10.5833 15.75 7.85 16.0833 4.5ZM28.6667 25.3333C30.5167 25.3333 32 23.85 32 22C32 20.15 30.5167 18.6667 28.6667 18.6667C26.8167 18.6667 25.3333 20.15 25.3333 22C25.3333 23.85 26.8167 25.3333 28.6667 25.3333ZM31.1667 27H26.1667C23.6833 27 21.65 25.2 21.25 22.8333H17.9167C18.25 26.1833 20.5667 28.9167 23.6667 29.9V33.6667H33.6667V29.5C33.6667 28.1167 32.55 27 31.1667 27Z" fill="currentColor"/>
</svg>
