<svg width="12" height="12" viewBox="0 0 14 14" fill="none" xmlns="http://www.w3.org/2000/svg">
<path d="M12.333 0.333328H4.33301C3.59967 0.333328 2.99967 0.933328 2.99967 1.66666V9.66666C2.99967 10.4 3.59967 11 4.33301 11H12.333C13.0663 11 13.6663 10.4 13.6663 9.66666V1.66666C13.6663 0.933328 13.0663 0.333328 12.333 0.333328ZM6.66634 5.33333C6.66634 5.88666 6.21967 6.33333 5.66634 6.33333H4.99967V7.66666H3.99967V3.66666H5.66634C6.21967 3.66666 6.66634 4.11333 6.66634 4.66666V5.33333ZM9.99967 6.66666C9.99967 7.22 9.55301 7.66666 8.99967 7.66666H7.33301V3.66666H8.99967C9.55301 3.66666 9.99967 4.11333 9.99967 4.66666V6.66666ZM12.6663 4.66666H11.6663V5.33333H12.6663V6.33333H11.6663V7.66666H10.6663V3.66666H12.6663V4.66666ZM4.99967 5.33333H5.66634V4.66666H4.99967V5.33333ZM1.66634 2.99999H0.333008V12.3333C0.333008 13.0667 0.933008 13.6667 1.66634 13.6667H10.9997V12.3333H1.66634V2.99999ZM8.33301 6.66666H8.99967V4.66666H8.33301V6.66666Z" fill="currentColor"/>
</svg>
