<svg width="16" height="16" viewBox="0 0 16 16" fill="none" xmlns="http://www.w3.org/2000/svg">
<path d="M11.3333 12.8133H3.33333V4.66659H8V3.33325H3.33333C2.6 3.33325 2 3.93325 2 4.66659V12.6666C2 13.3999 2.6 13.9999 3.33333 13.9999H11.3333C12.0667 13.9999 12.6667 13.3999 12.6667 12.6666V7.99992H11.3333V12.8133Z" fill="currentColor"/>
<path d="M12.6663 1.33325H11.333V3.33325H9.33301C9.33967 3.33992 9.33301 4.66659 9.33301 4.66659H11.333V6.65992C11.3397 6.66659 12.6663 6.65992 12.6663 6.65992V4.66659H14.6663V3.33325H12.6663V1.33325Z" fill="currentColor"/>
<path d="M10.0003 6H4.66699V7.33333H10.0003V6Z" fill="currentColor"/>
<path d="M4.66699 8V9.33333H10.0003V8H8.00033H4.66699Z" fill="currentColor"/>
<path d="M10.0003 10H4.66699V11.3333H10.0003V10Z" fill="currentColor"/>
</svg>
