<svg width="16" height="16" viewBox="0 0 16 16" fill="none" xmlns="http://www.w3.org/2000/svg">
<path d="M9.99967 2.66659V7.33325H3.44634L3.05301 7.72659L2.66634 8.11325V2.66659H9.99967ZM10.6663 1.33325H1.99967C1.63301 1.33325 1.33301 1.63325 1.33301 1.99992V11.3333L3.99967 8.66659H10.6663C11.033 8.66659 11.333 8.36659 11.333 7.99992V1.99992C11.333 1.63325 11.033 1.33325 10.6663 1.33325ZM13.9997 3.99992H12.6663V9.99992H3.99967V11.3333C3.99967 11.6999 4.29967 11.9999 4.66634 11.9999H11.9997L14.6663 14.6666V4.66659C14.6663 4.29992 14.3663 3.99992 13.9997 3.99992Z" fill="#1E88E5"/>
</svg>
