<svg width="17" height="16" viewBox="0 0 17 16" fill="none" xmlns="http://www.w3.org/2000/svg">
<path d="M8.5 9.33335H11.1667V6.66669H8.5V4.66669L5.16667 8.00002L8.5 11.3334V9.33335ZM13.1667 2.00002H10.38C10.1 1.22669 9.36667 0.666687 8.5 0.666687C7.63333 0.666687 6.9 1.22669 6.62 2.00002H3.83333C3.74 2.00002 3.65333 2.00669 3.56667 2.02669C3.30667 2.08002 3.07333 2.21335 2.89333 2.39335C2.77333 2.51335 2.67333 2.66002 2.60667 2.82002C2.54 2.97335 2.5 3.14669 2.5 3.33335V12.6667C2.5 12.8467 2.54 13.0267 2.60667 13.1867C2.67333 13.3467 2.77333 13.4867 2.89333 13.6134C3.07333 13.7934 3.30667 13.9267 3.56667 13.98C3.65333 13.9934 3.74 14 3.83333 14H13.1667C13.9 14 14.5 13.4 14.5 12.6667V3.33335C14.5 2.60002 13.9 2.00002 13.1667 2.00002ZM8.5 1.83335C8.77333 1.83335 9 2.06002 9 2.33335C9 2.60669 8.77333 2.83335 8.5 2.83335C8.22667 2.83335 8 2.60669 8 2.33335C8 2.06002 8.22667 1.83335 8.5 1.83335ZM13.1667 12.6667H3.83333V3.33335H13.1667V12.6667Z" fill="currentColor"/>
</svg>
