<svg width="16" height="16" viewBox="0 0 16 16" fill="none" xmlns="http://www.w3.org/2000/svg">
<path d="M12 8.66666H11.5467L10.2133 10H11.4867L12.6667 11.3333H3.33333L4.52 10H5.88667L4.55333 8.66666H4L2 10.6667V13.3333C2 14.0667 2.59333 14.6667 3.32667 14.6667H12.6667C13.4 14.6667 14 14.0733 14 13.3333V10.6667L12 8.66666ZM11.3333 5.3L8.03333 8.6L5.67333 6.24L8.97333 2.94L11.3333 5.3ZM8.50667 1.52666L4.26 5.77333C4 6.03333 4 6.45333 4.26 6.71333L7.56 10.0133C7.82 10.2733 8.24 10.2733 8.5 10.0133L12.74 5.77333C13 5.51333 13 5.09333 12.74 4.83333L9.44 1.53333C9.18667 1.26666 8.76667 1.26666 8.50667 1.52666Z" fill="currentColor"/>
</svg>
