<svg width="28" height="20" viewBox="0 0 28 20" fill="none" xmlns="http://www.w3.org/2000/svg">
<rect x="0.25" y="0.25" width="27.5" height="19.5" rx="1.75" fill="white" stroke="#F5F5F5" stroke-width="0.5"/>
<mask id="mask0" mask-type="alpha" maskUnits="userSpaceOnUse" x="0" y="0" width="28" height="20">
<rect x="0.25" y="0.25" width="27.5" height="19.5" rx="1.75" fill="white" stroke="white" stroke-width="0.5"/>
</mask>
<g mask="url(#mask0)">
<rect x="20" width="8" height="20" fill="#FF3131"/>
<path fill-rule="evenodd" clip-rule="evenodd" d="M0 20H8V0H0V20Z" fill="#FF3131"/>
<path fill-rule="evenodd" clip-rule="evenodd" d="M16.1115 9.22157C15.8783 9.45477 15.4842 9.24389 15.5489 8.92049L15.9997 6.66671L14.6663 7.33337L13.9997 5.33337L13.333 7.33337L11.9997 6.66671L12.4504 8.92049C12.5151 9.24389 12.1211 9.45477 11.8879 9.22157L11.5687 8.90241C11.4385 8.77223 11.2275 8.77223 11.0973 8.90241L10.6663 9.33337L9.33301 8.66671L9.99967 10L9.56871 10.431C9.43854 10.5612 9.43854 10.7722 9.56871 10.9024L11.333 12.6667H13.333L13.6663 14.6667H14.333L14.6663 12.6667H16.6663L18.4306 10.9024C18.5608 10.7722 18.5608 10.5612 18.4306 10.431L17.9997 10L18.6663 8.66671L17.333 9.33337L16.902 8.90241C16.7719 8.77223 16.5608 8.77223 16.4306 8.90241L16.1115 9.22157Z" fill="#FF3131"/>
</g>
</svg>
