<svg width="28" height="20" viewBox="0 0 28 20" fill="none" xmlns="http://www.w3.org/2000/svg">
<rect x="0.25" y="0.25" width="27.5" height="19.5" rx="1.75" fill="white" stroke="#F5F5F5" stroke-width="0.5"/>
<mask id="mask0" mask-type="alpha" maskUnits="userSpaceOnUse" x="0" y="0" width="28" height="20">
<rect x="0.25" y="0.25" width="27.5" height="19.5" rx="1.75" fill="white" stroke="white" stroke-width="0.5"/>
</mask>
<g mask="url(#mask0)">
<path fill-rule="evenodd" clip-rule="evenodd" d="M20 3.33333C20.3631 3.15178 20.7316 3.56923 20.5064 3.90701L20.0672 4.5658C20.0228 4.63238 19.9657 4.68952 19.8991 4.73391L18.0549 5.96338C18.0184 5.98773 17.9843 6.01563 17.9533 6.04668L17.8047 6.19526C17.5444 6.45561 17.5444 6.87772 17.8047 7.13807L18.1952 7.52859C18.4556 7.78894 18.4556 8.21105 18.1952 8.4714L17.6731 8.99356C17.4702 9.19647 17.1602 9.24677 16.9035 9.11844L16.5963 8.96481C16.2669 8.80015 15.8665 8.93363 15.7018 9.26295L15.4568 9.75301C15.3777 9.91115 15.2391 10.0314 15.0713 10.0873L13.4359 10.6325C13.368 10.6551 13.2968 10.6667 13.2251 10.6667H12.412C12.1595 10.6667 11.9286 10.8093 11.8157 11.0352L11.6315 11.4037C11.4668 11.733 11.0663 11.8665 10.737 11.7019L8.76341 10.715C8.69932 10.683 8.64082 10.6408 8.59015 10.5902L7.52857 9.52859C7.40355 9.40357 7.33331 9.234 7.33331 9.05719V8.4714C7.33331 8.21105 7.54437 8 7.80472 8C7.92974 8 8.04965 7.95033 8.13805 7.86193L9.13805 6.86193C9.26307 6.7369 9.43264 6.66666 9.60946 6.66666H10.1861C10.4731 6.66666 10.7279 6.48304 10.8186 6.21082L11.1472 5.22498C11.2535 4.90602 11.5807 4.71615 11.9104 4.78208L14.5196 5.30393C14.6164 5.32329 14.7163 5.32091 14.8121 5.29697L17.2623 4.68441C17.3095 4.67262 17.3553 4.65569 17.3988 4.63394L18.6666 4L20 3.33333Z" fill="#E7832C"/>
<path fill-rule="evenodd" clip-rule="evenodd" d="M14 16C14.3682 16 14.6666 15.7015 14.6666 15.3333C14.6666 14.9651 14.3682 14.6667 14 14.6667C13.6318 14.6667 13.3333 14.9651 13.3333 15.3333C13.3333 15.7015 13.6318 16 14 16Z" fill="#445128"/>
<path opacity="0.75" d="M16 14.6667C16 14.6667 18 14 18.6667 12.6667" stroke="#445128" stroke-width="1.33333" stroke-linecap="round"/>
<path opacity="0.75" d="M12 14.6667C12 14.6667 10 14 9.33333 12.6667" stroke="#445128" stroke-width="1.33333" stroke-linecap="round"/>
</g>
</svg>
