<svg width="28" height="20" viewBox="0 0 28 20" fill="none" xmlns="http://www.w3.org/2000/svg">
<rect x="0.25" y="0.25" width="27.5" height="19.5" rx="1.75" fill="white" stroke="#F5F5F5" stroke-width="0.5"/>
<mask id="mask0" mask-type="alpha" maskUnits="userSpaceOnUse" x="0" y="0" width="28" height="20">
<rect x="0.25" y="0.25" width="27.5" height="19.5" rx="1.75" fill="white" stroke="white" stroke-width="0.5"/>
</mask>
<g mask="url(#mask0)">
<path fill-rule="evenodd" clip-rule="evenodd" d="M0 6.66667H28V0H0V6.66667Z" fill="#38BB56"/>
<path fill-rule="evenodd" clip-rule="evenodd" d="M0 20H28V13.3333H0V20Z" fill="#DE1B27"/>
<path fill-rule="evenodd" clip-rule="evenodd" d="M1.66667 5.33334C1.48257 5.33334 1.33334 5.48258 1.33334 5.66668V6.33334C1.33334 6.51744 1.48257 6.66668 1.66667 6.66668H2.33334C2.51743 6.66668 2.66667 6.51744 2.66667 6.33334V5.66668C2.66667 5.48258 2.51743 5.33334 2.33334 5.33334H1.66667ZM4.33334 5.33334C4.14924 5.33334 4 5.48258 4 5.66668V6.33334C4 6.51744 4.14924 6.66668 4.33334 6.66668H5C5.1841 6.66668 5.33334 6.51744 5.33334 6.33334V5.66668C5.33334 5.48258 5.1841 5.33334 5 5.33334H4.33334ZM6.66667 5.66668C6.66667 5.48258 6.81591 5.33334 7 5.33334H7.66667C7.85076 5.33334 8 5.48258 8 5.66668V6.33334C8 6.51744 7.85076 6.66668 7.66667 6.66668H7C6.81591 6.66668 6.66667 6.51744 6.66667 6.33334V5.66668ZM9.66667 5.33334C9.48257 5.33334 9.33334 5.48258 9.33334 5.66668V6.33334C9.33334 6.51744 9.48257 6.66668 9.66667 6.66668H10.3333C10.5174 6.66668 10.6667 6.51744 10.6667 6.33334V5.66668C10.6667 5.48258 10.5174 5.33334 10.3333 5.33334H9.66667ZM12 5.66668C12 5.48258 12.1492 5.33334 12.3333 5.33334H13C13.1841 5.33334 13.3333 5.48258 13.3333 5.66668V6.33334C13.3333 6.51744 13.1841 6.66668 13 6.66668H12.3333C12.1492 6.66668 12 6.51744 12 6.33334V5.66668ZM15 5.33334C14.8159 5.33334 14.6667 5.48258 14.6667 5.66668V6.33334C14.6667 6.51744 14.8159 6.66668 15 6.66668H15.6667C15.8508 6.66668 16 6.51744 16 6.33334V5.66668C16 5.48258 15.8508 5.33334 15.6667 5.33334H15ZM17.3333 5.66668C17.3333 5.48258 17.4826 5.33334 17.6667 5.33334H18.3333C18.5174 5.33334 18.6667 5.48258 18.6667 5.66668V6.33334C18.6667 6.51744 18.5174 6.66668 18.3333 6.66668H17.6667C17.4826 6.66668 17.3333 6.51744 17.3333 6.33334V5.66668ZM20.3333 5.33334C20.1492 5.33334 20 5.48258 20 5.66668V6.33334C20 6.51744 20.1492 6.66668 20.3333 6.66668H21C21.1841 6.66668 21.3333 6.51744 21.3333 6.33334V5.66668C21.3333 5.48258 21.1841 5.33334 21 5.33334H20.3333ZM22.6667 5.66668C22.6667 5.48258 22.8159 5.33334 23 5.33334H23.6667C23.8508 5.33334 24 5.48258 24 5.66668V6.33334C24 6.51744 23.8508 6.66668 23.6667 6.66668H23C22.8159 6.66668 22.6667 6.51744 22.6667 6.33334V5.66668ZM25.6667 5.33334C25.4826 5.33334 25.3333 5.48258 25.3333 5.66668V6.33334C25.3333 6.51744 25.4826 6.66668 25.6667 6.66668H26.3333C26.5174 6.66668 26.6667 6.51744 26.6667 6.33334V5.66668C26.6667 5.48258 26.5174 5.33334 26.3333 5.33334H25.6667ZM1.33334 13.6667C1.33334 13.4826 1.48257 13.3333 1.66667 13.3333H2.33334C2.51743 13.3333 2.66667 13.4826 2.66667 13.6667V14.3333C2.66667 14.5174 2.51743 14.6667 2.33334 14.6667H1.66667C1.48257 14.6667 1.33334 14.5174 1.33334 14.3333V13.6667ZM4.33334 13.3333C4.14924 13.3333 4 13.4826 4 13.6667V14.3333C4 14.5174 4.14924 14.6667 4.33334 14.6667H5C5.1841 14.6667 5.33334 14.5174 5.33334 14.3333V13.6667C5.33334 13.4826 5.1841 13.3333 5 13.3333H4.33334ZM6.66667 13.6667C6.66667 13.4826 6.81591 13.3333 7 13.3333H7.66667C7.85076 13.3333 8 13.4826 8 13.6667V14.3333C8 14.5174 7.85076 14.6667 7.66667 14.6667H7C6.81591 14.6667 6.66667 14.5174 6.66667 14.3333V13.6667ZM9.66667 13.3333C9.48257 13.3333 9.33334 13.4826 9.33334 13.6667V14.3333C9.33334 14.5174 9.48257 14.6667 9.66667 14.6667H10.3333C10.5174 14.6667 10.6667 14.5174 10.6667 14.3333V13.6667C10.6667 13.4826 10.5174 13.3333 10.3333 13.3333H9.66667ZM12 13.6667C12 13.4826 12.1492 13.3333 12.3333 13.3333H13C13.1841 13.3333 13.3333 13.4826 13.3333 13.6667V14.3333C13.3333 14.5174 13.1841 14.6667 13 14.6667H12.3333C12.1492 14.6667 12 14.5174 12 14.3333V13.6667ZM15 13.3333C14.8159 13.3333 14.6667 13.4826 14.6667 13.6667V14.3333C14.6667 14.5174 14.8159 14.6667 15 14.6667H15.6667C15.8508 14.6667 16 14.5174 16 14.3333V13.6667C16 13.4826 15.8508 13.3333 15.6667 13.3333H15ZM17.3333 13.6667C17.3333 13.4826 17.4826 13.3333 17.6667 13.3333H18.3333C18.5174 13.3333 18.6667 13.4826 18.6667 13.6667V14.3333C18.6667 14.5174 18.5174 14.6667 18.3333 14.6667H17.6667C17.4826 14.6667 17.3333 14.5174 17.3333 14.3333V13.6667ZM20.3333 13.3333C20.1492 13.3333 20 13.4826 20 13.6667V14.3333C20 14.5174 20.1492 14.6667 20.3333 14.6667H21C21.1841 14.6667 21.3333 14.5174 21.3333 14.3333V13.6667C21.3333 13.4826 21.1841 13.3333 21 13.3333H20.3333ZM22.6667 13.6667C22.6667 13.4826 22.8159 13.3333 23 13.3333H23.6667C23.8508 13.3333 24 13.4826 24 13.6667V14.3333C24 14.5174 23.8508 14.6667 23.6667 14.6667H23C22.8159 14.6667 22.6667 14.5174 22.6667 14.3333V13.6667ZM25.6667 13.3333C25.4826 13.3333 25.3333 13.4826 25.3333 13.6667V14.3333C25.3333 14.5174 25.4826 14.6667 25.6667 14.6667H26.3333C26.5174 14.6667 26.6667 14.5174 26.6667 14.3333V13.6667C26.6667 13.4826 26.5174 13.3333 26.3333 13.3333H25.6667Z" fill="white" fill-opacity="0.5"/>
<mask id="path-6-inside-1" fill="white">
<path fill-rule="evenodd" clip-rule="evenodd" d="M12.6535 8.52115C12.252 8.88694 12 9.41405 12 10C12 11.1046 12.8954 12 14 12C15.1046 12 16 11.1046 16 10C16 9.42511 15.7574 8.90686 15.3691 8.54203"/>
</mask>
<path d="M12.2045 8.02833C11.6702 8.51513 11.3333 9.2187 11.3333 10H12.6667C12.6667 9.60939 12.8338 9.25875 13.1025 9.01397L12.2045 8.02833ZM11.3333 10C11.3333 11.4728 12.5272 12.6667 14 12.6667V11.3333C13.2636 11.3333 12.6667 10.7364 12.6667 10H11.3333ZM14 12.6667C15.4728 12.6667 16.6667 11.4728 16.6667 10H15.3333C15.3333 10.7364 14.7364 11.3333 14 11.3333V12.6667ZM16.6667 10C16.6667 9.23352 16.3424 8.5417 15.8255 8.05613L14.9126 9.02793C15.1724 9.27202 15.3333 9.61669 15.3333 10H16.6667Z" fill="#D80915" mask="url(#path-6-inside-1)"/>
<rect x="13.3333" y="9.33334" width="1.33333" height="2.66667" rx="0.666667" fill="#D80915"/>
</g>
</svg>
