<svg width="28" height="20" viewBox="0 0 28 20" fill="none" xmlns="http://www.w3.org/2000/svg">
<rect x="0.25" y="0.25" width="27.5" height="19.5" rx="1.75" fill="white" stroke="#F5F5F5" stroke-width="0.5"/>
<mask id="mask0" mask-type="alpha" maskUnits="userSpaceOnUse" x="0" y="0" width="28" height="20">
<rect x="0.25" y="0.25" width="27.5" height="19.5" rx="1.75" fill="white" stroke="white" stroke-width="0.5"/>
</mask>
<g mask="url(#mask0)">
<path fill-rule="evenodd" clip-rule="evenodd" d="M0 5.33333H28V0H0V5.33333Z" fill="#FFCB49"/>
<path fill-rule="evenodd" clip-rule="evenodd" d="M0 14.6667H28V9.33333H0V14.6667Z" fill="#DC1D34"/>
<path fill-rule="evenodd" clip-rule="evenodd" d="M0 20H28V14.6667H0V20Z" fill="#4985D4"/>
<path fill-rule="evenodd" clip-rule="evenodd" d="M0 20L13.3333 10L0 0V20Z" fill="#4BA343"/>
<path fill-rule="evenodd" clip-rule="evenodd" d="M5.33334 14C5.67864 14 6.01372 13.9562 6.33334 13.874C4.60812 13.4299 3.33334 11.8638 3.33334 10C3.33334 8.13616 4.60812 6.57006 6.33334 6.12602C6.01372 6.04375 5.67864 6 5.33334 6C3.1242 6 1.33334 7.79086 1.33334 10C1.33334 12.2091 3.1242 14 5.33334 14ZM8.00001 7.33333C8.00001 7.70152 7.70153 8 7.33334 8C6.96515 8 6.66668 7.70152 6.66668 7.33333C6.66668 6.96514 6.96515 6.66667 7.33334 6.66667C7.70153 6.66667 8.00001 6.96514 8.00001 7.33333ZM7.33334 10.6667C7.70153 10.6667 8.00001 10.3682 8.00001 10C8.00001 9.63181 7.70153 9.33333 7.33334 9.33333C6.96515 9.33333 6.66668 9.63181 6.66668 10C6.66668 10.3682 6.96515 10.6667 7.33334 10.6667ZM8.00001 12.6667C8.00001 13.0349 7.70153 13.3333 7.33334 13.3333C6.96515 13.3333 6.66668 13.0349 6.66668 12.6667C6.66668 12.2985 6.96515 12 7.33334 12C7.70153 12 8.00001 12.2985 8.00001 12.6667Z" fill="white"/>
</g>
</svg>
