<svg width="28" height="20" viewBox="0 0 28 20" fill="none" xmlns="http://www.w3.org/2000/svg">
<rect x="0.25" y="0.25" width="27.5" height="19.5" rx="1.75" fill="white" stroke="#F5F5F5" stroke-width="0.5"/>
<mask id="mask0" mask-type="alpha" maskUnits="userSpaceOnUse" x="0" y="0" width="28" height="20">
<rect x="0.25" y="0.25" width="27.5" height="19.5" rx="1.75" fill="white" stroke="white" stroke-width="0.5"/>
</mask>
<g mask="url(#mask0)">
<path fill-rule="evenodd" clip-rule="evenodd" d="M14.6667 20H28V0H14.6667V20Z" fill="#DE233C"/>
<mask id="path-4-outside-1" maskUnits="userSpaceOnUse" x="1.66666" y="1.66669" width="6" height="6" fill="black">
<rect fill="white" x="1.66666" y="1.66669" width="6" height="6"/>
<path fill-rule="evenodd" clip-rule="evenodd" d="M5.33332 2.66669H3.99999V4.00002H2.66666V5.33335H3.99999V6.66669H5.33332V5.33335H6.66666V4.00002H5.33332V2.66669Z"/>
</mask>
<path fill-rule="evenodd" clip-rule="evenodd" d="M5.33332 2.66669H3.99999V4.00002H2.66666V5.33335H3.99999V6.66669H5.33332V5.33335H6.66666V4.00002H5.33332V2.66669Z" fill="#CCCCCD"/>
<path d="M3.99999 2.66669V2.00002H3.33332V2.66669H3.99999ZM5.33332 2.66669H5.99999V2.00002H5.33332V2.66669ZM3.99999 4.00002V4.66669H4.66666V4.00002H3.99999ZM2.66666 4.00002V3.33335H1.99999V4.00002H2.66666ZM2.66666 5.33335H1.99999V6.00002H2.66666V5.33335ZM3.99999 5.33335H4.66666V4.66669H3.99999V5.33335ZM3.99999 6.66669H3.33332V7.33335H3.99999V6.66669ZM5.33332 6.66669V7.33335H5.99999V6.66669H5.33332ZM5.33332 5.33335V4.66669H4.66666V5.33335H5.33332ZM6.66666 5.33335V6.00002H7.33332V5.33335H6.66666ZM6.66666 4.00002H7.33332V3.33335H6.66666V4.00002ZM5.33332 4.00002H4.66666V4.66669H5.33332V4.00002ZM3.99999 3.33335H5.33332V2.00002H3.99999V3.33335ZM4.66666 4.00002V2.66669H3.33332V4.00002H4.66666ZM2.66666 4.66669H3.99999V3.33335H2.66666V4.66669ZM3.33332 5.33335V4.00002H1.99999V5.33335H3.33332ZM3.99999 4.66669H2.66666V6.00002H3.99999V4.66669ZM4.66666 6.66669V5.33335H3.33332V6.66669H4.66666ZM5.33332 6.00002H3.99999V7.33335H5.33332V6.00002ZM4.66666 5.33335V6.66669H5.99999V5.33335H4.66666ZM6.66666 4.66669H5.33332V6.00002H6.66666V4.66669ZM5.99999 4.00002V5.33335H7.33332V4.00002H5.99999ZM5.33332 4.66669H6.66666V3.33335H5.33332V4.66669ZM4.66666 2.66669V4.00002H5.99999V2.66669H4.66666Z" fill="#7B716A" fill-opacity="0.66" mask="url(#path-4-outside-1)"/>
<path fill-rule="evenodd" clip-rule="evenodd" d="M4.66667 5.33333C5.03486 5.33333 5.33333 5.03486 5.33333 4.66667C5.33333 4.29848 5.03486 4 4.66667 4C4.29848 4 4 4.29848 4 4.66667C4 5.03486 4.29848 5.33333 4.66667 5.33333Z" fill="#7B716A"/>
</g>
</svg>
