<svg width="28" height="20" viewBox="0 0 28 20" fill="none" xmlns="http://www.w3.org/2000/svg">
<rect x="0.25" y="0.25" width="27.5" height="19.5" rx="1.75" fill="white" stroke="#F5F5F5" stroke-width="0.5"/>
<mask id="mask0" mask-type="alpha" maskUnits="userSpaceOnUse" x="0" y="0" width="28" height="20">
<rect x="0.25" y="0.25" width="27.5" height="19.5" rx="1.75" fill="white" stroke="white" stroke-width="0.5"/>
</mask>
<g mask="url(#mask0)">
<path fill-rule="evenodd" clip-rule="evenodd" d="M0 20H28V9.33331H12.4444L13.3333 9.99998L0 20Z" fill="#DD1C34"/>
<path fill-rule="evenodd" clip-rule="evenodd" d="M28 9.33333H12.4444L0 0H28V9.33333Z" fill="#0D4BC3"/>
<path fill-rule="evenodd" clip-rule="evenodd" d="M1.99999 4.00002C2.36818 4.00002 2.66666 3.70154 2.66666 3.33335C2.66666 2.96516 2.36818 2.66669 1.99999 2.66669C1.63181 2.66669 1.33333 2.96516 1.33333 3.33335C1.33333 3.70154 1.63181 4.00002 1.99999 4.00002ZM10 10.6667C10.3682 10.6667 10.6667 10.3682 10.6667 10C10.6667 9.63183 10.3682 9.33335 10 9.33335C9.63181 9.33335 9.33333 9.63183 9.33333 10C9.33333 10.3682 9.63181 10.6667 10 10.6667ZM2.66666 16.6667C2.66666 17.0349 2.36818 17.3334 1.99999 17.3334C1.63181 17.3334 1.33333 17.0349 1.33333 16.6667C1.33333 16.2985 1.63181 16 1.99999 16C2.36818 16 2.66666 16.2985 2.66666 16.6667ZM4.53207 11.3266L3.39105 13.0796L3.82378 11.0332C3.75415 10.9763 3.69037 10.9125 3.63349 10.8429L1.58706 11.2756L3.34004 10.1346C3.3356 10.0904 3.33333 10.0455 3.33333 10C3.33333 9.95459 3.3356 9.90969 3.34004 9.86543L1.58706 8.72441L3.63349 9.15714C3.69037 9.08751 3.75415 9.02373 3.82378 8.96685L3.39105 6.92042L4.53207 8.6734C4.57633 8.66896 4.62123 8.66669 4.66666 8.66669C4.71209 8.66669 4.75699 8.66896 4.80125 8.6734L5.94227 6.92042L5.50954 8.96685C5.57918 9.02373 5.64295 9.0875 5.69983 9.15714L7.74626 8.72441L5.99329 9.86543C5.99772 9.90969 6 9.95459 6 10C6 10.0455 5.99772 10.0904 5.99329 10.1346L7.74626 11.2756L5.69983 10.8429C5.64295 10.9125 5.57918 10.9763 5.50954 11.0332L5.94227 13.0796L4.80125 11.3266C4.75699 11.3311 4.71209 11.3334 4.66666 11.3334C4.62123 11.3334 4.57633 11.3311 4.53207 11.3266Z" fill="#FDD64D"/>
</g>
</svg>
