<svg width="28" height="20" viewBox="0 0 28 20" fill="none" xmlns="http://www.w3.org/2000/svg">
<rect x="0.25" y="0.25" width="27.5" height="19.5" rx="1.75" fill="white" stroke="#F5F5F5" stroke-width="0.5"/>
<mask id="mask0" mask-type="alpha" maskUnits="userSpaceOnUse" x="0" y="0" width="28" height="20">
<rect x="0.25" y="0.25" width="27.5" height="19.5" rx="1.75" fill="white" stroke="white" stroke-width="0.5"/>
</mask>
<g mask="url(#mask0)">
<path fill-rule="evenodd" clip-rule="evenodd" d="M0 10.6667H28V0H0V10.6667Z" fill="#E12237"/>
<path fill-rule="evenodd" clip-rule="evenodd" d="M6.66666 9.33331C7.61177 9.33331 8.48033 9.00554 9.16484 8.45746C8.80224 8.59271 8.40975 8.66665 8 8.66665C6.15905 8.66665 4.66666 7.17426 4.66666 5.33331C4.66666 3.49236 6.15905 1.99998 8 1.99998C8.40975 1.99998 8.80224 2.07391 9.16484 2.20917C8.48033 1.66109 7.61177 1.33331 6.66666 1.33331C4.45753 1.33331 2.66666 3.12417 2.66666 5.33331C2.66666 7.54245 4.45753 9.33331 6.66666 9.33331ZM8 4.66665C8 5.03484 7.70152 5.33331 7.33333 5.33331C6.96514 5.33331 6.66666 5.03484 6.66666 4.66665C6.66666 4.29846 6.96514 3.99998 7.33333 3.99998C7.70152 3.99998 8 4.29846 8 4.66665ZM8.66666 7.99998C9.03485 7.99998 9.33333 7.7015 9.33333 7.33331C9.33333 6.96512 9.03485 6.66665 8.66666 6.66665C8.29847 6.66665 8 6.96512 8 7.33331C8 7.7015 8.29847 7.99998 8.66666 7.99998ZM12 7.33331C12 7.7015 11.7015 7.99998 11.3333 7.99998C10.9651 7.99998 10.6667 7.7015 10.6667 7.33331C10.6667 6.96512 10.9651 6.66665 11.3333 6.66665C11.7015 6.66665 12 6.96512 12 7.33331ZM12.6667 5.33331C13.0349 5.33331 13.3333 5.03484 13.3333 4.66665C13.3333 4.29846 13.0349 3.99998 12.6667 3.99998C12.2985 3.99998 12 4.29846 12 4.66665C12 5.03484 12.2985 5.33331 12.6667 5.33331ZM10.6667 2.66665C10.6667 3.03484 10.3682 3.33331 10 3.33331C9.63181 3.33331 9.33333 3.03484 9.33333 2.66665C9.33333 2.29846 9.63181 1.99998 10 1.99998C10.3682 1.99998 10.6667 2.29846 10.6667 2.66665Z" fill="white"/>
</g>
</svg>
