<svg width="28" height="20" viewBox="0 0 28 20" fill="none" xmlns="http://www.w3.org/2000/svg">
<rect x="0.25" y="0.25" width="27.5" height="19.5" rx="1.75" fill="white" stroke="#F5F5F5" stroke-width="0.5"/>
<mask id="mask0" mask-type="alpha" maskUnits="userSpaceOnUse" x="0" y="0" width="28" height="20">
<rect x="0.25" y="0.25" width="27.5" height="19.5" rx="1.75" fill="white" stroke="white" stroke-width="0.5"/>
</mask>
<g mask="url(#mask0)">
<path fill-rule="evenodd" clip-rule="evenodd" d="M28 2.66669H13.3333V5.33335H28V2.66669ZM13.3333 8.00002V10.6667H28V8.00002H13.3333ZM13.3333 13.3334L0 13.3334V16H28V13.3334H13.3333ZM0 20V18.6667H28V20H0Z" fill="#0E4DC5"/>
<path fill-rule="evenodd" clip-rule="evenodd" d="M6.66666 9.3213L5.77658 10.6499L5.55112 9.06668L4.1727 9.87756L4.65653 8.35327L3.06279 8.48577L4.16006 7.32235L2.66666 6.75024L4.16006 6.17812L3.06279 5.0147L4.65653 5.14721L4.1727 3.62291L5.55112 4.43379L5.77658 2.85052L6.66666 4.17917L7.55675 2.85052L7.78221 4.43379L9.16062 3.62291L8.6768 5.14721L10.2705 5.0147L9.17326 6.17812L10.6667 6.75024L9.17326 7.32235L10.2705 8.48577L8.6768 8.35327L9.16062 9.87756L7.78221 9.06668L7.55675 10.6499L6.66666 9.3213ZM6.66666 9.29569C8.07248 9.29569 9.21212 8.15605 9.21212 6.75024C9.21212 5.34442 8.07248 4.20478 6.66666 4.20478C5.26085 4.20478 4.12121 5.34442 4.12121 6.75024C4.12121 8.15605 5.26085 9.29569 6.66666 9.29569ZM8.66666 6.66666C8.66666 7.77123 7.77123 8.66666 6.66666 8.66666C5.56209 8.66666 4.66666 7.77123 4.66666 6.66666C4.66666 5.56209 5.56209 4.66666 6.66666 4.66666C7.77123 4.66666 8.66666 5.56209 8.66666 6.66666Z" fill="#FED443"/>
</g>
</svg>
