<svg width="217" height="72" viewBox="0 0 217 72" fill="none" xmlns="http://www.w3.org/2000/svg">
<g clip-path="url(#clip0)">
<path fill-rule="evenodd" clip-rule="evenodd" d="M20.7846 24L41.5692 36V60L20.7846 72L0 60L0 36L20.7846 24ZM20.7846 29.1429L4.45384 38.5714V57.4286L20.7846 66.8571L37.1154 57.4286V38.5714L20.7846 29.1429Z" fill="#90CAF9"/>
<path fill-rule="evenodd" clip-rule="evenodd" d="M12.4267 60.0002L6.21348 63.5874L1.75977 61.0159L7.97284 57.4288V38.5717L1.75977 34.9845L6.21348 32.4131L12.4267 36.0002L12.4265 45.7715L29.1849 45.7717V36.0002L35.3772 32.4251L39.8311 34.9965L33.6388 38.5717V57.4288L39.8309 61.0037L35.3772 63.5751L29.1849 60.0002V50.2288L12.4265 50.2287L12.4267 60.0002Z" fill="#1E88E5"/>
<path d="M59.7647 56.836C65.1794 56.836 69.5704 52.5797 69.5704 47.0303C69.5704 41.4809 65.1794 37.2246 59.7647 37.2246C54.35 37.2246 49.959 41.4809 49.959 47.0303C49.959 52.5797 54.35 56.836 59.7647 56.836ZM59.7647 52.6336C56.6937 52.6336 54.2692 50.3977 54.2692 47.0303C54.2692 43.663 56.6937 41.4271 59.7647 41.4271C62.8357 41.4271 65.2602 43.663 65.2602 47.0303C65.2602 50.3977 62.8357 52.6336 59.7647 52.6336ZM75.901 56.4589V49.1046C75.901 47.192 76.9247 46.3299 78.4063 46.3299C79.6994 46.3299 80.75 47.1111 80.75 48.7813V56.4589H84.7908V48.1887C84.7908 44.552 82.4741 42.6124 79.7533 42.6124C77.9753 42.6124 76.6284 43.2589 75.901 44.2556V42.9895H71.8602V56.4589H75.901ZM94.3541 56.836C96.9133 56.836 98.9067 55.8932 100.227 54.0613L96.9941 52.2026C96.4553 52.7952 95.5125 53.2262 94.408 53.2262C92.9263 53.2262 91.6871 52.7413 91.1753 51.3405H100.739C100.846 50.8287 100.9 50.2899 100.9 49.7242C100.9 45.6564 97.9908 42.6124 94.0578 42.6124C89.8014 42.6124 86.892 45.7103 86.892 49.7242C86.892 53.7381 89.7476 56.836 94.3541 56.836ZM96.8863 48.3234H91.0945C91.4716 46.9495 92.4953 46.1952 94.0308 46.1952C95.2431 46.1952 96.4553 46.7609 96.8863 48.3234ZM107.635 56.4589V48.9699H113.561V56.4589H117.872V37.6018H113.561V44.8213H107.635V37.6018H103.325V56.4589H107.635ZM129.159 56.0548L133.766 42.9895H129.455L126.923 51.2328L123.933 42.9895H119.488L124.849 55.8393C124.256 57.4826 123.367 58.0752 121.481 58.0752V61.8466C125.253 62.0352 127.65 60.3381 129.159 56.0548ZM139.288 61.8466V55.1928C140.177 56.2164 141.497 56.836 143.302 56.836C146.831 56.836 149.74 53.7381 149.74 49.7242C149.74 45.7103 146.831 42.6124 143.302 42.6124C141.497 42.6124 140.177 43.232 139.288 44.2556V42.9895H135.247V61.8466H139.288ZM142.494 53.0107C140.635 53.0107 139.288 51.7446 139.288 49.7242C139.288 47.7038 140.635 46.4377 142.494 46.4377C144.352 46.4377 145.699 47.7038 145.699 49.7242C145.699 51.7446 144.352 53.0107 142.494 53.0107ZM158.819 56.836C161.378 56.836 163.371 55.8932 164.691 54.0613L161.459 52.2026C160.92 52.7952 159.977 53.2262 158.872 53.2262C157.391 53.2262 156.152 52.7413 155.64 51.3405H165.203C165.311 50.8287 165.365 50.2899 165.365 49.7242C165.365 45.6564 162.455 42.6124 158.522 42.6124C154.266 42.6124 151.357 45.7103 151.357 49.7242C151.357 53.7381 154.212 56.836 158.819 56.836ZM161.351 48.3234H155.559C155.936 46.9495 156.96 46.1952 158.495 46.1952C159.708 46.1952 160.92 46.7609 161.351 48.3234ZM171.695 56.4589V50.3707C171.695 47.7038 174.066 47.0303 175.736 47.2997V42.7201C174.039 42.7201 172.234 43.5822 171.695 45.3871V42.9895H167.655V56.4589H171.695ZM181.663 56.4589V49.1046C181.663 47.192 182.686 46.3299 184.168 46.3299C185.461 46.3299 186.512 47.1111 186.512 48.7813V56.4589H190.552V48.1887C190.552 44.552 188.236 42.6124 185.515 42.6124C183.737 42.6124 182.39 43.2589 181.663 44.2556V42.9895H177.622V56.4589H181.663ZM200.116 56.836C202.675 56.836 204.668 55.8932 205.988 54.0613L202.756 52.2026C202.217 52.7952 201.274 53.2262 200.17 53.2262C198.688 53.2262 197.449 52.7413 196.937 51.3405H206.5C206.608 50.8287 206.662 50.2899 206.662 49.7242C206.662 45.6564 203.752 42.6124 199.819 42.6124C195.563 42.6124 192.654 45.7103 192.654 49.7242C192.654 53.7381 195.509 56.836 200.116 56.836ZM202.648 48.3234H196.856C197.233 46.9495 198.257 46.1952 199.792 46.1952C201.005 46.1952 202.217 46.7609 202.648 48.3234ZM216.441 56.4589V52.7952C214.663 52.903 213.666 52.7952 213.666 51.6368V46.8687H216.441V42.9895H213.666V39.2181L209.625 40.4303V42.9895H207.47V46.8687H209.625V51.6368C209.625 55.4083 211.161 56.9977 216.441 56.4589Z" fill="#212121"/>
</g>
<path d="M1.05682 12V3.27273H4.00568C4.69034 3.27273 5.25 3.39631 5.68466 3.64347C6.12216 3.88778 6.44602 4.21875 6.65625 4.63636C6.86648 5.05398 6.97159 5.51989 6.97159 6.03409C6.97159 6.5483 6.86648 7.01562 6.65625 7.43608C6.44886 7.85653 6.12784 8.19176 5.69318 8.44176C5.25852 8.68892 4.7017 8.8125 4.02273 8.8125H1.90909V7.875H3.98864C4.45739 7.875 4.83381 7.79403 5.1179 7.6321C5.40199 7.47017 5.60795 7.25142 5.7358 6.97585C5.86648 6.69744 5.93182 6.38352 5.93182 6.03409C5.93182 5.68466 5.86648 5.37216 5.7358 5.09659C5.60795 4.82102 5.40057 4.60511 5.11364 4.44886C4.8267 4.28977 4.44602 4.21023 3.97159 4.21023H2.11364V12H1.05682ZM11.1264 12.1364C10.5355 12.1364 10.017 11.9957 9.57102 11.7145C9.12784 11.4332 8.78125 11.0398 8.53125 10.5341C8.28409 10.0284 8.16051 9.4375 8.16051 8.76136C8.16051 8.07955 8.28409 7.48437 8.53125 6.97585C8.78125 6.46733 9.12784 6.07244 9.57102 5.79119C10.017 5.50994 10.5355 5.36932 11.1264 5.36932C11.7173 5.36932 12.2344 5.50994 12.6776 5.79119C13.1236 6.07244 13.4702 6.46733 13.7173 6.97585C13.9673 7.48437 14.0923 8.07955 14.0923 8.76136C14.0923 9.4375 13.9673 10.0284 13.7173 10.5341C13.4702 11.0398 13.1236 11.4332 12.6776 11.7145C12.2344 11.9957 11.7173 12.1364 11.1264 12.1364ZM11.1264 11.233C11.5753 11.233 11.9446 11.1179 12.2344 10.8878C12.5241 10.6577 12.7386 10.3551 12.8778 9.98011C13.017 9.60511 13.0866 9.19886 13.0866 8.76136C13.0866 8.32386 13.017 7.91619 12.8778 7.53835C12.7386 7.16051 12.5241 6.85511 12.2344 6.62216C11.9446 6.3892 11.5753 6.27273 11.1264 6.27273C10.6776 6.27273 10.3082 6.3892 10.0185 6.62216C9.72869 6.85511 9.5142 7.16051 9.375 7.53835C9.2358 7.91619 9.16619 8.32386 9.16619 8.76136C9.16619 9.19886 9.2358 9.60511 9.375 9.98011C9.5142 10.3551 9.72869 10.6577 10.0185 10.8878C10.3082 11.1179 10.6776 11.233 11.1264 11.233ZM16.8878 12L14.8935 5.45455H15.9503L17.3651 10.4659H17.4332L18.831 5.45455H19.9048L21.2855 10.4489H21.3537L22.7685 5.45455H23.8253L21.831 12H20.8423L19.4105 6.97159H19.3082L17.8764 12H16.8878ZM27.6765 12.1364C27.0458 12.1364 26.5018 11.9972 26.0444 11.7188C25.5898 11.4375 25.239 11.0455 24.9918 10.5426C24.7475 10.0369 24.6254 9.44886 24.6254 8.77841C24.6254 8.10795 24.7475 7.51705 24.9918 7.00568C25.239 6.49148 25.5827 6.09091 26.0231 5.80398C26.4663 5.5142 26.9833 5.36932 27.5742 5.36932C27.9151 5.36932 28.2518 5.42614 28.5842 5.53977C28.9165 5.65341 29.2191 5.83807 29.4918 6.09375C29.7646 6.34659 29.9819 6.68182 30.1438 7.09943C30.3058 7.51705 30.3867 8.03125 30.3867 8.64205V9.06818H25.3413V8.19886H29.364C29.364 7.82955 29.2901 7.5 29.1424 7.21023C28.9975 6.92045 28.7901 6.69176 28.5202 6.52415C28.2532 6.35653 27.9379 6.27273 27.5742 6.27273C27.1737 6.27273 26.8271 6.37216 26.5344 6.57102C26.2447 6.76705 26.0217 7.02273 25.8654 7.33807C25.7092 7.65341 25.631 7.99148 25.631 8.35227V8.93182C25.631 9.42614 25.7163 9.84517 25.8867 10.1889C26.06 10.5298 26.3001 10.7898 26.6069 10.9688C26.9137 11.1449 27.2702 11.233 27.6765 11.233C27.9407 11.233 28.1793 11.196 28.3924 11.1222C28.6083 11.0455 28.7944 10.9318 28.9506 10.7812C29.1069 10.6278 29.2276 10.4375 29.3129 10.2102L30.2844 10.483C30.1822 10.8125 30.0103 11.1023 29.7688 11.3523C29.5273 11.5994 29.229 11.7926 28.8739 11.9318C28.5188 12.0682 28.1197 12.1364 27.6765 12.1364ZM31.9165 12V5.45455H32.8881V6.44318H32.9563C33.0756 6.11932 33.2915 5.85653 33.604 5.65483C33.9165 5.45312 34.2688 5.35227 34.6609 5.35227C34.7347 5.35227 34.8271 5.35369 34.9379 5.35653C35.0487 5.35937 35.1325 5.36364 35.1893 5.36932V6.39205C35.1552 6.38352 35.0771 6.37074 34.9549 6.35369C34.8356 6.33381 34.7092 6.32386 34.5756 6.32386C34.2575 6.32386 33.9734 6.39062 33.7234 6.52415C33.4762 6.65483 33.2802 6.83665 33.1353 7.0696C32.9933 7.29972 32.9222 7.5625 32.9222 7.85795V12H31.9165ZM38.9265 12.1364C38.2958 12.1364 37.7518 11.9972 37.2944 11.7188C36.8398 11.4375 36.489 11.0455 36.2418 10.5426C35.9975 10.0369 35.8754 9.44886 35.8754 8.77841C35.8754 8.10795 35.9975 7.51705 36.2418 7.00568C36.489 6.49148 36.8327 6.09091 37.2731 5.80398C37.7163 5.5142 38.2333 5.36932 38.8242 5.36932C39.1651 5.36932 39.5018 5.42614 39.8342 5.53977C40.1665 5.65341 40.4691 5.83807 40.7418 6.09375C41.0146 6.34659 41.2319 6.68182 41.3938 7.09943C41.5558 7.51705 41.6367 8.03125 41.6367 8.64205V9.06818H36.5913V8.19886H40.614C40.614 7.82955 40.5401 7.5 40.3924 7.21023C40.2475 6.92045 40.0401 6.69176 39.7702 6.52415C39.5032 6.35653 39.1879 6.27273 38.8242 6.27273C38.4237 6.27273 38.0771 6.37216 37.7844 6.57102C37.4947 6.76705 37.2717 7.02273 37.1154 7.33807C36.9592 7.65341 36.881 7.99148 36.881 8.35227V8.93182C36.881 9.42614 36.9663 9.84517 37.1367 10.1889C37.31 10.5298 37.5501 10.7898 37.8569 10.9688C38.1637 11.1449 38.5202 11.233 38.9265 11.233C39.1907 11.233 39.4293 11.196 39.6424 11.1222C39.8583 11.0455 40.0444 10.9318 40.2006 10.7812C40.3569 10.6278 40.4776 10.4375 40.5629 10.2102L41.5344 10.483C41.4322 10.8125 41.2603 11.1023 41.0188 11.3523C40.7773 11.5994 40.479 11.7926 40.1239 11.9318C39.7688 12.0682 39.3697 12.1364 38.9265 12.1364ZM45.6381 12.1364C45.0927 12.1364 44.6112 11.9986 44.1935 11.723C43.7759 11.4446 43.4492 11.0526 43.2134 10.5469C42.9776 10.0384 42.8597 9.4375 42.8597 8.74432C42.8597 8.05682 42.9776 7.46023 43.2134 6.95455C43.4492 6.44886 43.7773 6.05824 44.1978 5.78267C44.6183 5.5071 45.104 5.36932 45.6552 5.36932C46.0813 5.36932 46.418 5.44034 46.6651 5.58239C46.9151 5.72159 47.1055 5.88068 47.2362 6.05966C47.3697 6.2358 47.4734 6.38068 47.5472 6.49432H47.6325V3.27273H48.6381V12H47.6665V10.9943H47.5472C47.4734 11.1136 47.3683 11.2642 47.2319 11.446C47.0955 11.625 46.9009 11.7855 46.6481 11.9276C46.3952 12.0668 46.0586 12.1364 45.6381 12.1364ZM45.7745 11.233C46.1779 11.233 46.5188 11.1278 46.7972 10.9176C47.0756 10.7045 47.2873 10.4105 47.4322 10.0355C47.5771 9.65767 47.6495 9.22159 47.6495 8.72727C47.6495 8.23864 47.5785 7.81108 47.4364 7.4446C47.2944 7.07528 47.0842 6.78835 46.8058 6.58381C46.5273 6.37642 46.1836 6.27273 45.7745 6.27273C45.3484 6.27273 44.9933 6.3821 44.7092 6.60085C44.4279 6.81676 44.2163 7.1108 44.0742 7.48295C43.935 7.85227 43.8654 8.26705 43.8654 8.72727C43.8654 9.19318 43.9364 9.61648 44.0785 9.99716C44.2234 10.375 44.4364 10.6761 44.7177 10.9006C45.0018 11.1222 45.354 11.233 45.7745 11.233ZM54.131 12V3.27273H55.1367V6.49432H55.2219C55.2958 6.38068 55.3981 6.2358 55.5288 6.05966C55.6623 5.88068 55.8526 5.72159 56.0998 5.58239C56.3498 5.44034 56.6879 5.36932 57.114 5.36932C57.6651 5.36932 58.1509 5.5071 58.5714 5.78267C58.9918 6.05824 59.32 6.44886 59.5558 6.95455C59.7915 7.46023 59.9094 8.05682 59.9094 8.74432C59.9094 9.4375 59.7915 10.0384 59.5558 10.5469C59.32 11.0526 58.9933 11.4446 58.5756 11.723C58.158 11.9986 57.6765 12.1364 57.131 12.1364C56.7106 12.1364 56.3739 12.0668 56.1211 11.9276C55.8683 11.7855 55.6737 11.625 55.5373 11.446C55.4009 11.2642 55.2958 11.1136 55.2219 10.9943H55.1026V12H54.131ZM55.1197 8.72727C55.1197 9.22159 55.1921 9.65767 55.337 10.0355C55.4819 10.4105 55.6935 10.7045 55.9719 10.9176C56.2504 11.1278 56.5913 11.233 56.9947 11.233C57.4151 11.233 57.766 11.1222 58.0472 10.9006C58.3313 10.6761 58.5444 10.375 58.6864 9.99716C58.8313 9.61648 58.9038 9.19318 58.9038 8.72727C58.9038 8.26705 58.8327 7.85227 58.6907 7.48295C58.5515 7.1108 58.3398 6.81676 58.0558 6.60085C57.7745 6.3821 57.4208 6.27273 56.9947 6.27273C56.5856 6.27273 56.2418 6.37642 55.9634 6.58381C55.685 6.78835 55.4748 7.07528 55.3327 7.4446C55.1907 7.81108 55.1197 8.23864 55.1197 8.72727ZM61.8612 14.4375C61.6907 14.4375 61.5387 14.4233 61.4052 14.3949C61.2717 14.3693 61.1793 14.3438 61.1282 14.3182L61.3839 13.4318C61.7504 13.5256 62.0558 13.5227 62.3001 13.4233C62.5444 13.3267 62.756 13.0341 62.935 12.5455L63.1225 12.0341L60.7021 5.45455H61.793L63.5998 10.6705H63.668L65.4748 5.45455L66.5742 5.47159L63.7873 12.9545C63.6623 13.2869 63.5075 13.5625 63.3228 13.7812C63.1381 14.0028 62.9237 14.1676 62.6793 14.2756C62.4379 14.3835 62.1651 14.4375 61.8612 14.4375Z" fill="#212121"/>
<defs>
<clipPath id="clip0">
<rect width="216.49" height="48" fill="white" transform="translate(0 24)"/>
</clipPath>
</defs>
</svg>
