<svg width="181" height="40" viewBox="0 0 181 40" fill="none" xmlns="http://www.w3.org/2000/svg">
<path opacity="0.8" fill-rule="evenodd" clip-rule="evenodd" d="M17.3205 0L34.641 10V30L17.3205 40L0 30L0 10L17.3205 0ZM17.3205 4.28571L3.71154 12.1429V27.8571L17.3205 35.7143L30.9295 27.8571V12.1429L17.3205 4.28571Z" fill="white"/>
<path fill-rule="evenodd" clip-rule="evenodd" d="M10.3554 30L5.17774 32.9893L1.46631 30.8465L6.64387 27.8572V12.1429L1.46631 9.1536L5.17774 7.01074L10.3554 10L10.3553 18.1428L24.3206 18.1429V10L29.4808 7.02074L33.1925 9.1636L28.0322 12.1429V27.8572L33.1922 30.8363L29.4808 32.9791L24.3206 30V21.8572L10.3553 21.8571L10.3554 30Z" fill="white"/>
<path d="M49.8042 27.3632C54.3165 27.3632 57.9757 23.8163 57.9757 19.1918C57.9757 14.5673 54.3165 11.0204 49.8042 11.0204C45.292 11.0204 41.6328 14.5673 41.6328 19.1918C41.6328 23.8163 45.292 27.3632 49.8042 27.3632ZM49.8042 23.8612C47.2451 23.8612 45.2247 21.9979 45.2247 19.1918C45.2247 16.3857 47.2451 14.5224 49.8042 14.5224C52.3634 14.5224 54.3838 16.3857 54.3838 19.1918C54.3838 21.9979 52.3634 23.8612 49.8042 23.8612ZM63.2512 27.0489V20.9204C63.2512 19.3265 64.1042 18.6081 65.3389 18.6081C66.4165 18.6081 67.292 19.2592 67.292 20.651V27.0489H70.6593V20.1571C70.6593 17.1265 68.7287 15.5102 66.4614 15.5102C64.9798 15.5102 63.8573 16.049 63.2512 16.8796V15.8245H59.8838V27.0489H63.2512ZM78.6287 27.3632C80.7614 27.3632 82.4226 26.5775 83.5226 25.051L80.8287 23.502C80.3798 23.9959 79.594 24.3551 78.6736 24.3551C77.4389 24.3551 76.4063 23.951 75.9798 22.7836H83.9491C84.0389 22.3571 84.0838 21.9081 84.0838 21.4367C84.0838 18.0469 81.6593 15.5102 78.3818 15.5102C74.8349 15.5102 72.4104 18.0918 72.4104 21.4367C72.4104 24.7816 74.79 27.3632 78.6287 27.3632ZM80.7389 20.2694H75.9124C76.2267 19.1245 77.0798 18.4959 78.3593 18.4959C79.3695 18.4959 80.3798 18.9673 80.7389 20.2694ZM89.6961 27.0489V20.8081H94.6349V27.0489H98.2267V11.3347H94.6349V17.351H89.6961V11.3347H86.1042V27.0489H89.6961ZM107.633 26.7122L111.472 15.8245H107.88L105.77 22.6938L103.278 15.8245H99.5736L104.041 26.5326C103.547 27.902 102.806 28.3959 101.235 28.3959V31.5387C104.378 31.6959 106.376 30.2816 107.633 26.7122ZM116.074 31.5387V25.9938C116.814 26.8469 117.914 27.3632 119.419 27.3632C122.359 27.3632 124.784 24.7816 124.784 21.4367C124.784 18.0918 122.359 15.5102 119.419 15.5102C117.914 15.5102 116.814 16.0265 116.074 16.8796V15.8245H112.706V31.5387H116.074ZM118.745 24.1755C117.196 24.1755 116.074 23.1204 116.074 21.4367C116.074 19.753 117.196 18.6979 118.745 18.6979C120.294 18.6979 121.416 19.753 121.416 21.4367C121.416 23.1204 120.294 24.1755 118.745 24.1755ZM132.349 27.3632C134.482 27.3632 136.143 26.5775 137.243 25.051L134.549 23.502C134.1 23.9959 133.314 24.3551 132.394 24.3551C131.159 24.3551 130.127 23.951 129.7 22.7836H137.67C137.759 22.3571 137.804 21.9081 137.804 21.4367C137.804 18.0469 135.38 15.5102 132.102 15.5102C128.555 15.5102 126.131 18.0918 126.131 21.4367C126.131 24.7816 128.51 27.3632 132.349 27.3632ZM134.459 20.2694H129.633C129.947 19.1245 130.8 18.4959 132.08 18.4959C133.09 18.4959 134.1 18.9673 134.459 20.2694ZM143.08 27.0489V21.9755C143.08 19.753 145.055 19.1918 146.447 19.4163V15.6C145.033 15.6 143.529 16.3183 143.08 17.8224V15.8245H139.712V27.0489H143.08ZM151.386 27.0489V20.9204C151.386 19.3265 152.239 18.6081 153.474 18.6081C154.551 18.6081 155.427 19.2592 155.427 20.651V27.0489H158.794V20.1571C158.794 17.1265 156.863 15.5102 154.596 15.5102C153.114 15.5102 151.992 16.049 151.386 16.8796V15.8245H148.019V27.0489H151.386ZM166.763 27.3632C168.896 27.3632 170.557 26.5775 171.657 25.051L168.963 23.502C168.514 23.9959 167.729 24.3551 166.808 24.3551C165.574 24.3551 164.541 23.951 164.114 22.7836H172.084C172.174 22.3571 172.219 21.9081 172.219 21.4367C172.219 18.0469 169.794 15.5102 166.516 15.5102C162.97 15.5102 160.545 18.0918 160.545 21.4367C160.545 24.7816 162.925 27.3632 166.763 27.3632ZM168.874 20.2694H164.047C164.361 19.1245 165.214 18.4959 166.494 18.4959C167.504 18.4959 168.514 18.9673 168.874 20.2694ZM180.368 27.0489V23.9959C178.886 24.0857 178.055 23.9959 178.055 23.0306V19.0571H180.368V15.8245H178.055V12.6816L174.688 13.6918V15.8245H172.892V19.0571H174.688V23.0306C174.688 26.1734 175.968 27.4979 180.368 27.0489Z" fill="white"/>
</svg>
