<svg width="217" height="48" viewBox="0 0 217 48" fill="none" xmlns="http://www.w3.org/2000/svg">
<g clip-path="url(#clip0)">
<path fill-rule="evenodd" clip-rule="evenodd" d="M20.7846 0L41.5692 12V36L20.7846 48L0 36L0 12L20.7846 0ZM20.7846 5.14286L4.45384 14.5714V33.4286L20.7846 42.8571L37.1154 33.4286V14.5714L20.7846 5.14286Z" fill="#90CAF9"/>
<path fill-rule="evenodd" clip-rule="evenodd" d="M12.4262 36L6.21299 39.5871L1.75928 37.0157L7.97235 33.4286V14.5714L1.75928 10.9843L6.21299 8.41284L12.4262 12L12.4261 21.7713L29.1844 21.7714V12L35.3767 8.42484L39.8306 10.9963L33.6383 14.5714V33.4286L39.8304 37.0035L35.3767 39.5749L29.1844 36V26.2286L12.4261 26.2284L12.4262 36Z" fill="#1E88E5"/>
<path d="M59.7647 32.8359C65.1794 32.8359 69.5704 28.5796 69.5704 23.0302C69.5704 17.4808 65.1794 13.2245 59.7647 13.2245C54.35 13.2245 49.959 17.4808 49.959 23.0302C49.959 28.5796 54.35 32.8359 59.7647 32.8359ZM59.7647 28.6335C56.6937 28.6335 54.2692 26.3975 54.2692 23.0302C54.2692 19.6629 56.6937 17.4269 59.7647 17.4269C62.8357 17.4269 65.2602 19.6629 65.2602 23.0302C65.2602 26.3975 62.8357 28.6335 59.7647 28.6335ZM75.901 32.4588V25.1045C75.901 23.1918 76.9247 22.3298 78.4063 22.3298C79.6994 22.3298 80.75 23.111 80.75 24.7812V32.4588H84.7908V24.1886C84.7908 20.5518 82.4741 18.6122 79.7533 18.6122C77.9753 18.6122 76.6284 19.2588 75.901 20.2555V18.9894H71.8602V32.4588H75.901ZM94.3541 32.8359C96.9133 32.8359 98.9067 31.893 100.227 30.0612L96.9941 28.2024C96.4553 28.7951 95.5125 29.2261 94.408 29.2261C92.9263 29.2261 91.6871 28.7412 91.1753 27.3404H100.739C100.846 26.8286 100.9 26.2898 100.9 25.7241C100.9 21.6563 97.9908 18.6122 94.0578 18.6122C89.8014 18.6122 86.892 21.7102 86.892 25.7241C86.892 29.7379 89.7476 32.8359 94.3541 32.8359ZM96.8863 24.3233H91.0945C91.4716 22.9494 92.4953 22.1951 94.0308 22.1951C95.2431 22.1951 96.4553 22.7608 96.8863 24.3233ZM107.635 32.4588V24.9698H113.561V32.4588H117.872V13.6016H113.561V20.8212H107.635V13.6016H103.325V32.4588H107.635ZM129.159 32.0547L133.766 18.9894H129.455L126.923 27.2326L123.933 18.9894H119.488L124.849 31.8392C124.256 33.4824 123.367 34.0751 121.481 34.0751V37.8465C125.253 38.0351 127.65 36.3379 129.159 32.0547ZM139.288 37.8465V31.1926C140.177 32.2163 141.497 32.8359 143.302 32.8359C146.831 32.8359 149.74 29.7379 149.74 25.7241C149.74 21.7102 146.831 18.6122 143.302 18.6122C141.497 18.6122 140.177 19.2318 139.288 20.2555V18.9894H135.247V37.8465H139.288ZM142.494 29.0106C140.635 29.0106 139.288 27.7445 139.288 25.7241C139.288 23.7037 140.635 22.4375 142.494 22.4375C144.352 22.4375 145.699 23.7037 145.699 25.7241C145.699 27.7445 144.352 29.0106 142.494 29.0106ZM158.819 32.8359C161.378 32.8359 163.371 31.893 164.691 30.0612L161.459 28.2024C160.92 28.7951 159.977 29.2261 158.872 29.2261C157.391 29.2261 156.152 28.7412 155.64 27.3404H165.203C165.311 26.8286 165.365 26.2898 165.365 25.7241C165.365 21.6563 162.455 18.6122 158.522 18.6122C154.266 18.6122 151.357 21.7102 151.357 25.7241C151.357 29.7379 154.212 32.8359 158.819 32.8359ZM161.351 24.3233H155.559C155.936 22.9494 156.96 22.1951 158.495 22.1951C159.708 22.1951 160.92 22.7608 161.351 24.3233ZM171.695 32.4588V26.3706C171.695 23.7037 174.066 23.0302 175.736 23.2996V18.72C174.039 18.72 172.234 19.582 171.695 21.3869V18.9894H167.655V32.4588H171.695ZM181.663 32.4588V25.1045C181.663 23.1918 182.686 22.3298 184.168 22.3298C185.461 22.3298 186.512 23.111 186.512 24.7812V32.4588H190.552V24.1886C190.552 20.5518 188.236 18.6122 185.515 18.6122C183.737 18.6122 182.39 19.2588 181.663 20.2555V18.9894H177.622V32.4588H181.663ZM200.116 32.8359C202.675 32.8359 204.668 31.893 205.988 30.0612L202.756 28.2024C202.217 28.7951 201.274 29.2261 200.17 29.2261C198.688 29.2261 197.449 28.7412 196.937 27.3404H206.5C206.608 26.8286 206.662 26.2898 206.662 25.7241C206.662 21.6563 203.752 18.6122 199.819 18.6122C195.563 18.6122 192.654 21.7102 192.654 25.7241C192.654 29.7379 195.509 32.8359 200.116 32.8359ZM202.648 24.3233H196.856C197.233 22.9494 198.257 22.1951 199.792 22.1951C201.005 22.1951 202.217 22.7608 202.648 24.3233ZM216.441 32.4588V28.7951C214.663 28.9028 213.666 28.7951 213.666 27.6367V22.8686H216.441V18.9894H213.666V15.218L209.625 16.4302V18.9894H207.47V22.8686H209.625V27.6367C209.625 31.4081 211.161 32.9975 216.441 32.4588Z" fill="#212121"/>
</g>
<defs>
<clipPath id="clip0">
<rect width="216.49" height="48" fill="white"/>
</clipPath>
</defs>
</svg>
