<svg width="32" height="36" viewBox="0 0 32 36" fill="none" xmlns="http://www.w3.org/2000/svg">
<path fill-rule="evenodd" clip-rule="evenodd" d="M15.5885 0L31.1769 9V27L15.5885 36L0 27L0 9L15.5885 0ZM15.5885 3.85714L3.34038 10.9286V25.0714L15.5885 32.1429L27.8365 25.0714V10.9286L15.5885 3.85714Z" fill="#90CAF9"/>
<path fill-rule="evenodd" clip-rule="evenodd" d="M9.31975 27L4.65984 29.6904L1.31956 27.7618L5.97936 25.0714V10.9286L1.31956 8.23821L4.65984 6.30964L9.31975 9L9.31964 16.3285L21.8884 16.3286V9L26.5326 6.31864L29.8731 8.24721L25.2288 10.9286V25.0714L29.8729 27.7526L26.5326 29.6812L21.8884 27V19.6714L9.31964 19.6713L9.31975 27Z" fill="#1E88E5"/>
</svg>
