<svg width="210" height="32" viewBox="0 0 210 32" fill="none" xmlns="http://www.w3.org/2000/svg">
<g clip-path="url(#clip0)">
<path d="M114.328 24.782V8.15867H117.815V14.618C118.231 14.0164 118.776 13.5573 119.449 13.2407C120.139 12.924 120.876 12.7657 121.662 12.7657C122.463 12.7657 123.201 12.924 123.874 13.2407C124.564 13.5573 125.156 13.9927 125.653 14.5468C126.167 15.0851 126.567 15.7342 126.856 16.4941C127.144 17.2382 127.289 18.0456 127.289 18.9164C127.289 19.7872 127.144 20.5946 126.856 21.3386C126.567 22.0827 126.167 22.7319 125.653 23.2859C125.156 23.84 124.564 24.2755 123.874 24.5921C123.201 24.9086 122.463 25.067 121.662 25.067C120.876 25.067 120.139 24.9246 119.449 24.6396C118.776 24.3387 118.231 23.8797 117.815 23.2622V24.782H114.328ZM123.802 18.9164C123.802 18.4889 123.722 18.0931 123.561 17.729C123.401 17.3649 123.185 17.0482 122.912 16.7791C122.64 16.4941 122.319 16.2725 121.951 16.1142C121.582 15.9558 121.181 15.8767 120.748 15.8767C120.315 15.8767 119.915 15.9558 119.546 16.1142C119.177 16.2725 118.856 16.4941 118.584 16.7791C118.312 17.0482 118.095 17.3649 117.935 17.729C117.774 18.0931 117.694 18.4889 117.694 18.9164C117.694 19.3438 117.774 19.7397 117.935 20.1038C118.095 20.4678 118.312 20.7924 118.584 21.0774C118.856 21.3465 119.177 21.5602 119.546 21.7186C119.915 21.877 120.315 21.9561 120.748 21.9561C121.181 21.9561 121.582 21.877 121.951 21.7186C122.319 21.5602 122.64 21.3465 122.912 21.0774C123.185 20.7924 123.401 20.4678 123.561 20.1038C123.722 19.7397 123.802 19.3438 123.802 18.9164ZM137.31 13.0507H140.821V24.782H137.31V23.2859C136.957 23.84 136.485 24.2834 135.892 24.6158C135.315 24.9324 134.633 25.0908 133.848 25.0908C132.485 25.0908 131.419 24.6633 130.649 23.8084C129.88 22.9535 129.495 21.782 129.495 20.2938V13.0507H133.006V19.4626C133.006 20.2384 133.182 20.8399 133.535 21.2674C133.904 21.6948 134.425 21.9086 135.098 21.9086C135.771 21.9086 136.308 21.679 136.709 21.2199C137.11 20.745 137.31 20.0879 137.31 19.2488V13.0507ZM147.788 15.5204C147.467 15.5204 147.203 15.5996 146.994 15.7579C146.786 15.9004 146.681 16.0904 146.681 16.3279C146.681 16.7554 147.01 17.0562 147.668 17.2303L149.158 17.6103C150.281 17.8952 151.13 18.3386 151.707 18.9401C152.3 19.526 152.597 20.2384 152.597 21.0774C152.597 21.6633 152.477 22.2014 152.236 22.6923C151.996 23.1831 151.659 23.6106 151.226 23.9746C150.809 24.323 150.305 24.5921 149.711 24.782C149.134 24.9879 148.501 25.0908 147.812 25.0908C146.625 25.0908 145.592 24.8374 144.71 24.3309C143.828 23.8243 143.187 23.1197 142.786 22.2173L145.624 20.6737C145.848 21.1646 146.161 21.5524 146.561 21.8374C146.962 22.1223 147.387 22.2648 147.836 22.2648C148.205 22.2648 148.501 22.1857 148.725 22.0273C148.966 21.8689 149.086 21.6474 149.086 21.3624C149.086 20.9508 148.725 20.6578 148.004 20.4837L146.609 20.1512C144.349 19.6288 143.219 18.4255 143.219 16.5416C143.219 15.9875 143.331 15.4809 143.556 15.0218C143.78 14.5468 144.093 14.1431 144.493 13.8106C144.894 13.4782 145.375 13.2169 145.936 13.027C146.513 12.837 147.139 12.742 147.812 12.742C148.325 12.742 148.822 12.8132 149.303 12.9557C149.784 13.0823 150.232 13.2644 150.649 13.5019C151.066 13.7394 151.435 14.0243 151.755 14.3568C152.076 14.6893 152.332 15.0614 152.525 15.473L149.663 16.9691C149.487 16.5258 149.223 16.1775 148.87 15.9242C148.517 15.655 148.157 15.5204 147.788 15.5204ZM154.741 24.782V13.0507H158.252V24.782H154.741ZM158.54 9.65478C158.54 9.9239 158.484 10.1851 158.372 10.4384C158.276 10.6759 158.132 10.8896 157.939 11.0796C157.763 11.2538 157.547 11.3963 157.29 11.5071C157.049 11.6179 156.785 11.6733 156.496 11.6733C156.208 11.6733 155.936 11.6179 155.679 11.5071C155.439 11.3963 155.222 11.2538 155.03 11.0796C154.853 10.8896 154.709 10.6759 154.597 10.4384C154.501 10.1851 154.453 9.9239 154.453 9.65478C154.453 9.38565 154.501 9.13234 154.597 8.89485C154.709 8.64154 154.853 8.42783 155.03 8.25368C155.222 8.06369 155.439 7.91328 155.679 7.80245C155.936 7.69165 156.208 7.63623 156.496 7.63623C156.785 7.63623 157.049 7.69165 157.29 7.80245C157.547 7.91328 157.763 8.06369 157.939 8.25368C158.132 8.42783 158.276 8.64154 158.372 8.89485C158.484 9.13234 158.54 9.38565 158.54 9.65478ZM164.851 24.782H161.34V13.0507H164.851V14.5468C165.219 13.9768 165.692 13.5336 166.269 13.2169C166.862 12.9003 167.56 12.742 168.361 12.742C169.724 12.742 170.79 13.1694 171.56 14.0243C172.345 14.8793 172.738 16.0508 172.738 17.539V24.782H169.227V18.3464C169.227 17.5707 169.043 16.977 168.674 16.5654C168.305 16.1379 167.776 15.9242 167.087 15.9242C166.413 15.9242 165.868 16.1616 165.452 16.6366C165.051 17.0957 164.851 17.7369 164.851 18.5602V24.782ZM186.797 21.9798C186.3 22.9456 185.579 23.7056 184.633 24.2596C183.703 24.8137 182.589 25.0908 181.291 25.0908C180.361 25.0908 179.511 24.9404 178.741 24.6396C177.972 24.3387 177.307 23.9193 176.746 23.381C176.201 22.8269 175.768 22.1698 175.447 21.4099C175.143 20.65 174.991 19.8188 174.991 18.9164C174.991 18.0298 175.143 17.2144 175.447 16.4704C175.768 15.7104 176.201 15.0534 176.746 14.4993C177.307 13.9452 177.956 13.5178 178.693 13.2169C179.447 12.9003 180.264 12.742 181.146 12.742C182.044 12.742 182.861 12.9003 183.599 13.2169C184.352 13.5178 184.993 13.9452 185.523 14.4993C186.052 15.0534 186.46 15.7183 186.749 16.4941C187.053 17.254 187.206 18.0931 187.206 19.0114C187.206 19.2172 187.197 19.3913 187.182 19.5338C187.182 19.6763 187.173 19.7872 187.158 19.8663H178.429C178.461 20.2147 178.557 20.5312 178.717 20.8162C178.878 21.1012 179.086 21.3546 179.343 21.5761C179.615 21.782 179.912 21.9482 180.232 22.0748C180.569 22.1857 180.921 22.2411 181.291 22.2411C181.948 22.2411 182.469 22.1145 182.853 21.8611C183.238 21.6077 183.567 21.2596 183.839 20.8162L186.797 21.9798ZM183.767 17.6103C183.687 16.977 183.407 16.4624 182.925 16.0667C182.445 15.655 181.844 15.4492 181.122 15.4492C180.769 15.4492 180.441 15.5126 180.136 15.6392C179.832 15.75 179.559 15.9083 179.319 16.1142C179.078 16.32 178.878 16.5495 178.717 16.8028C178.573 17.0562 178.485 17.3253 178.453 17.6103H183.767ZM193.461 15.5204C193.141 15.5204 192.876 15.5996 192.668 15.7579C192.459 15.9004 192.355 16.0904 192.355 16.3279C192.355 16.7554 192.684 17.0562 193.341 17.2303L194.832 17.6103C195.954 17.8952 196.804 18.3386 197.381 18.9401C197.974 19.526 198.271 20.2384 198.271 21.0774C198.271 21.6633 198.151 22.2014 197.91 22.6923C197.669 23.1831 197.333 23.6106 196.9 23.9746C196.483 24.323 195.978 24.5921 195.385 24.782C194.808 24.9879 194.175 25.0908 193.485 25.0908C192.299 25.0908 191.265 24.8374 190.384 24.3309C189.502 23.8243 188.86 23.1197 188.46 22.2173L191.297 20.6737C191.521 21.1646 191.834 21.5524 192.235 21.8374C192.636 22.1223 193.061 22.2648 193.509 22.2648C193.878 22.2648 194.175 22.1857 194.399 22.0273C194.64 21.8689 194.76 21.6474 194.76 21.3624C194.76 20.9508 194.399 20.6578 193.678 20.4837L192.283 20.1512C190.023 19.6288 188.893 18.4255 188.893 16.5416C188.893 15.9875 189.005 15.4809 189.229 15.0218C189.453 14.5468 189.766 14.1431 190.167 13.8106C190.568 13.4782 191.049 13.2169 191.61 13.027C192.187 12.837 192.812 12.742 193.485 12.742C193.998 12.742 194.495 12.8132 194.976 12.9557C195.457 13.0823 195.906 13.2644 196.323 13.5019C196.74 13.7394 197.108 14.0243 197.429 14.3568C197.749 14.6893 198.006 15.0614 198.199 15.473L195.337 16.9691C195.16 16.5258 194.896 16.1775 194.544 15.9242C194.191 15.655 193.83 15.5204 193.461 15.5204ZM204.428 15.5204C204.107 15.5204 203.843 15.5996 203.634 15.7579C203.426 15.9004 203.321 16.0904 203.321 16.3279C203.321 16.7554 203.65 17.0562 204.307 17.2303L205.798 17.6103C206.92 17.8952 207.77 18.3386 208.347 18.9401C208.94 19.526 209.237 20.2384 209.237 21.0774C209.237 21.6633 209.117 22.2014 208.876 22.6923C208.636 23.1831 208.299 23.6106 207.866 23.9746C207.449 24.323 206.945 24.5921 206.351 24.782C205.774 24.9879 205.141 25.0908 204.452 25.0908C203.265 25.0908 202.232 24.8374 201.35 24.3309C200.468 23.8243 199.827 23.1197 199.426 22.2173L202.264 20.6737C202.488 21.1646 202.8 21.5524 203.201 21.8374C203.602 22.1223 204.027 22.2648 204.476 22.2648C204.844 22.2648 205.141 22.1857 205.365 22.0273C205.606 21.8689 205.726 21.6474 205.726 21.3624C205.726 20.9508 205.365 20.6578 204.644 20.4837L203.249 20.1512C200.989 19.6288 199.859 18.4255 199.859 16.5416C199.859 15.9875 199.971 15.4809 200.196 15.0218C200.42 14.5468 200.732 14.1431 201.133 13.8106C201.534 13.4782 202.015 13.2169 202.576 13.027C203.153 12.837 203.779 12.742 204.452 12.742C204.965 12.742 205.461 12.8132 205.943 12.9557C206.424 13.0823 206.872 13.2644 207.289 13.5019C207.706 13.7394 208.075 14.0243 208.395 14.3568C208.716 14.6893 208.972 15.0614 209.165 15.473L206.303 16.9691C206.127 16.5258 205.863 16.1775 205.51 15.9242C205.157 15.655 204.796 15.5204 204.428 15.5204Z" fill="#212121"/>
<path d="M25.517 14.1219V24.4478H20.6547V15.2542C20.6547 13.2234 19.7217 11.9903 18.0229 11.9903C16.3564 11.9903 15.224 13.3563 15.1918 15.5545V24.4478H10.3273V15.3207C10.3273 13.2234 9.39433 11.9903 7.72996 11.9903C5.99695 11.9903 4.86447 13.3885 4.86447 15.6553V24.45H0V7.9929H4.86447V10.0581C5.73098 8.55905 7.32887 7.5597 9.49513 7.5597C11.7279 7.5597 13.4266 8.62552 14.3253 10.4248C15.3569 8.69199 17.2229 7.5597 19.623 7.5597C23.385 7.5597 25.517 10.1245 25.517 14.1219ZM36.4105 19.0179L32.3139 7.9929H27.1835L33.8453 24.4135L33.3799 25.4793C32.7129 27.0791 31.7477 27.6453 30.3149 27.6453C29.6479 27.6453 29.0152 27.5123 28.4489 27.2464V31.3103C29.0152 31.6105 29.9139 31.9108 31.2136 31.9108C34.3108 31.9108 36.4771 30.1458 38.2102 25.8825L45.5731 7.99505H40.5756L36.4105 19.0179ZM66.8585 7.5597C64.66 7.5597 62.9935 8.49257 61.9942 10.0902V7.9929H57.1295V24.4478H61.9942V15.7196C61.9942 13.4207 63.2273 12.0224 65.0913 12.0224C66.9895 12.0224 68.0553 13.2556 68.0553 15.4194V24.4457H72.9196V14.287C72.9218 10.1245 70.6225 7.5597 66.8585 7.5597ZM77.6833 7.25945V7.9929H75.352V11.9903H77.6833V24.4478H82.5135V11.9903H86.7775V7.9929H82.5135V7.29377C82.5135 5.32937 83.7124 4.52948 85.2782 4.52948C86.044 4.52948 86.6444 4.69676 87.1444 4.96268V0.832326C86.5116 0.497781 85.5462 0.29834 84.4462 0.29834C80.3153 0.29834 77.6833 2.82888 77.6833 7.25945ZM105.6 16.2193C105.6 21.1152 101.77 24.8789 96.6716 24.8789C91.5734 24.8789 87.7447 21.1152 87.7447 16.2193C87.7447 11.3233 91.5753 7.5597 96.6738 7.5597C101.772 7.5597 105.6 11.3233 105.6 16.2193ZM100.803 16.2193C100.803 13.8538 98.9364 11.9881 96.6716 11.9881C94.4065 11.9881 92.5407 13.8538 92.5407 16.2193C92.5407 18.5847 94.4065 20.4504 96.6716 20.4504C98.9364 20.4504 100.803 18.5847 100.803 16.2193ZM53.5196 24.4349H47.3513L48.664 14.2334C49.6484 14.5294 51.2225 14.5294 52.2073 14.2334L53.5196 24.4349ZM50.4356 13.2813C52.044 13.2813 53.2902 12.0353 53.2902 10.4269C53.2902 8.81854 52.044 7.57257 50.4356 7.57257C48.8269 7.57257 47.5807 8.81854 47.5807 10.4269C47.5807 12.0332 48.8269 13.2813 50.4356 13.2813Z" fill="white"/>
<path d="M25.517 14.1219V24.4478H20.6547V15.2542C20.6547 13.2234 19.7217 11.9903 18.0229 11.9903C16.3564 11.9903 15.224 13.3563 15.1918 15.5545V24.4478H10.3273V15.3207C10.3273 13.2234 9.39433 11.9903 7.72996 11.9903C5.99695 11.9903 4.86447 13.3885 4.86447 15.6553V24.45H0V7.9929H4.86447V10.0581C5.73098 8.55905 7.32887 7.5597 9.49513 7.5597C11.7279 7.5597 13.4266 8.62552 14.3253 10.4248C15.3569 8.69199 17.2229 7.5597 19.623 7.5597C23.385 7.5597 25.517 10.1245 25.517 14.1219ZM36.4105 19.0179L32.3139 7.9929H27.1835L33.8453 24.4135L33.3799 25.4793C32.7129 27.0791 31.7477 27.6453 30.3149 27.6453C29.6479 27.6453 29.0152 27.5123 28.4489 27.2464V31.3103C29.0152 31.6105 29.9139 31.9108 31.2136 31.9108C34.3108 31.9108 36.4771 30.1458 38.2102 25.8825L45.5731 7.99505H40.5756L36.4105 19.0179ZM66.8585 7.5597C64.66 7.5597 62.9935 8.49257 61.9942 10.0902V7.9929H57.1295V24.4478H61.9942V15.7196C61.9942 13.4207 63.2273 12.0224 65.0913 12.0224C66.9895 12.0224 68.0553 13.2556 68.0553 15.4194V24.4457H72.9196V14.287C72.9218 10.1245 70.6225 7.5597 66.8585 7.5597ZM77.6833 7.25945V7.9929H75.352V11.9903H77.6833V24.4478H82.5135V11.9903H86.7775V7.9929H82.5135V7.29377C82.5135 5.32937 83.7124 4.52948 85.2782 4.52948C86.044 4.52948 86.6444 4.69676 87.1444 4.96268V0.832326C86.5116 0.497781 85.5462 0.29834 84.4462 0.29834C80.3153 0.29834 77.6833 2.82888 77.6833 7.25945ZM105.6 16.2193C105.6 21.1152 101.77 24.8789 96.6716 24.8789C91.5734 24.8789 87.7447 21.1152 87.7447 16.2193C87.7447 11.3233 91.5753 7.5597 96.6738 7.5597C101.772 7.5597 105.6 11.3233 105.6 16.2193ZM100.803 16.2193C100.803 13.8538 98.9364 11.9881 96.6716 11.9881C94.4065 11.9881 92.5407 13.8538 92.5407 16.2193C92.5407 18.5847 94.4065 20.4504 96.6716 20.4504C98.9364 20.4504 100.803 18.5847 100.803 16.2193Z" fill="#F4333D"/>
<path d="M53.5199 24.4352H47.3516L48.6643 14.2337C49.6486 14.5296 51.2228 14.5296 52.2076 14.2337L53.5199 24.4352ZM50.4359 13.2815C52.0443 13.2815 53.2905 12.0355 53.2905 10.4271C53.2905 8.81872 52.0443 7.57275 50.4359 7.57275C48.8272 7.57275 47.581 8.81872 47.581 10.4271C47.581 12.0334 48.8272 13.2815 50.4359 13.2815Z" fill="#212121"/>
</g>
<defs>
<clipPath id="clip0">
<rect width="209.455" height="32" fill="white"/>
</clipPath>
</defs>
</svg>
