<svg width="378" height="389" viewBox="0 0 378 389" fill="none" xmlns="http://www.w3.org/2000/svg">
<rect width="378" height="389" rx="15" fill="white"/>
<path d="M121 318H69.4998C64.2532 318 60 313.747 60 308.5V69.4998C60 64.2532 64.2532 60 69.4998 60H308.5C313.747 60 318 64.2532 318 69.4998V308.5C318 313.747 313.762 318 308.515 318C296.489 318 275.135 318 257 318" stroke="#F4333D" stroke-width="3"/>
<rect x="84" y="84" width="210" height="210" fill="#CECDD2"/>
<path d="M114.663 106.76V112H111.843V97.88H116.983C118.649 97.88 119.903 98.28 120.743 99.08C121.596 99.88 122.023 100.967 122.023 102.34C122.023 103.687 121.583 104.76 120.703 105.56C119.836 106.36 118.596 106.76 116.983 106.76H114.663ZM116.683 104.5C118.336 104.5 119.163 103.78 119.163 102.34C119.163 101.633 118.969 101.093 118.583 100.72C118.196 100.347 117.563 100.16 116.683 100.16H114.663V104.5H116.683ZM126.674 109.84H131.414V112H123.854V97.88H126.674V109.84ZM141.693 109.16H136.033L135.033 112H132.053L137.253 98.04H140.473L145.653 112H142.673L141.693 109.16ZM140.933 107.02L138.853 101.06L136.773 107.02H140.933ZM153.555 97.74C155.315 97.74 156.775 98.1933 157.935 99.1C159.095 100.007 159.861 101.24 160.235 102.8H157.275C156.968 102.04 156.488 101.44 155.835 101C155.195 100.56 154.421 100.34 153.515 100.34C152.768 100.34 152.095 100.527 151.495 100.9C150.895 101.273 150.428 101.807 150.095 102.5C149.761 103.193 149.595 104.007 149.595 104.94C149.595 105.86 149.761 106.667 150.095 107.36C150.428 108.053 150.895 108.587 151.495 108.96C152.095 109.333 152.768 109.52 153.515 109.52C154.421 109.52 155.195 109.3 155.835 108.86C156.488 108.42 156.968 107.82 157.275 107.06H160.235C159.861 108.62 159.095 109.853 157.935 110.76C156.775 111.667 155.315 112.12 153.555 112.12C152.208 112.12 151.015 111.82 149.975 111.22C148.948 110.607 148.148 109.753 147.575 108.66C147.015 107.567 146.735 106.327 146.735 104.94C146.735 103.54 147.015 102.293 147.575 101.2C148.148 100.107 148.948 99.26 149.975 98.66C151.001 98.0467 152.195 97.74 153.555 97.74ZM165.17 100.12V103.78H170.17V105.94H165.17V109.74H170.77V112H162.35V97.88H170.77V100.12H165.17ZM188.594 97.88L183.814 107.06V112H180.974V107.06L176.174 97.88H179.414L182.414 104.06L185.414 97.88H188.594ZM196.724 97.68C198.044 97.68 199.238 97.9867 200.304 98.6C201.384 99.2133 202.231 100.073 202.844 101.18C203.471 102.273 203.784 103.513 203.784 104.9C203.784 106.287 203.471 107.533 202.844 108.64C202.231 109.747 201.384 110.607 200.304 111.22C199.238 111.833 198.044 112.14 196.724 112.14C195.404 112.14 194.204 111.833 193.124 111.22C192.058 110.607 191.211 109.747 190.584 108.64C189.971 107.533 189.664 106.287 189.664 104.9C189.664 103.513 189.971 102.273 190.584 101.18C191.211 100.073 192.058 99.2133 193.124 98.6C194.204 97.9867 195.404 97.68 196.724 97.68ZM196.724 100.28C195.898 100.28 195.171 100.467 194.544 100.84C193.918 101.213 193.424 101.753 193.064 102.46C192.718 103.153 192.544 103.967 192.544 104.9C192.544 105.833 192.718 106.653 193.064 107.36C193.424 108.053 193.918 108.587 194.544 108.96C195.171 109.333 195.898 109.52 196.724 109.52C197.551 109.52 198.278 109.333 198.904 108.96C199.531 108.587 200.018 108.053 200.364 107.36C200.724 106.653 200.904 105.833 200.904 104.9C200.904 103.967 200.724 103.153 200.364 102.46C200.018 101.753 199.531 101.213 198.904 100.84C198.278 100.467 197.551 100.28 196.724 100.28ZM208.625 97.88V106.16C208.625 107.267 208.865 108.1 209.345 108.66C209.838 109.207 210.545 109.48 211.465 109.48C212.372 109.48 213.065 109.207 213.545 108.66C214.038 108.1 214.285 107.267 214.285 106.16V97.88H217.085V106.16C217.085 107.467 216.838 108.573 216.345 109.48C215.865 110.373 215.192 111.04 214.325 111.48C213.472 111.92 212.498 112.14 211.405 112.14C209.712 112.14 208.358 111.633 207.345 110.62C206.332 109.607 205.825 108.12 205.825 106.16V97.88H208.625ZM226.917 112L223.617 106.5H222.377V112H219.557V97.88H224.937C226.577 97.88 227.824 98.28 228.677 99.08C229.544 99.88 229.977 100.933 229.977 102.24C229.977 103.307 229.677 104.2 229.077 104.92C228.491 105.64 227.637 106.12 226.517 106.36L230.037 112H226.917ZM222.377 104.56H224.697C226.311 104.56 227.117 103.847 227.117 102.42C227.117 101.74 226.917 101.213 226.517 100.84C226.131 100.453 225.524 100.26 224.697 100.26H222.377V104.56ZM246.817 114.58L244.617 111.94C244.084 112.073 243.497 112.14 242.857 112.14C241.537 112.14 240.337 111.833 239.257 111.22C238.19 110.607 237.344 109.747 236.717 108.64C236.104 107.533 235.797 106.287 235.797 104.9C235.797 103.513 236.104 102.273 236.717 101.18C237.344 100.073 238.19 99.2133 239.257 98.6C240.337 97.9867 241.537 97.68 242.857 97.68C244.177 97.68 245.37 97.9867 246.437 98.6C247.517 99.2133 248.364 100.073 248.977 101.18C249.604 102.273 249.917 103.513 249.917 104.9C249.917 106.193 249.65 107.367 249.117 108.42C248.584 109.46 247.844 110.3 246.897 110.94L250.237 114.58H246.817ZM238.677 104.9C238.677 105.833 238.85 106.653 239.197 107.36C239.557 108.053 240.05 108.587 240.677 108.96C241.304 109.333 242.03 109.52 242.857 109.52C243.684 109.52 244.41 109.333 245.037 108.96C245.664 108.587 246.15 108.053 246.497 107.36C246.857 106.653 247.037 105.833 247.037 104.9C247.037 103.967 246.857 103.153 246.497 102.46C246.15 101.753 245.664 101.213 245.037 100.84C244.41 100.467 243.684 100.28 242.857 100.28C242.03 100.28 241.304 100.467 240.677 100.84C240.05 101.213 239.557 101.753 239.197 102.46C238.85 103.153 238.677 103.967 238.677 104.9ZM259.398 112L256.098 106.5H254.858V112H252.038V97.88H257.418C259.058 97.88 260.304 98.28 261.158 99.08C262.024 99.88 262.458 100.933 262.458 102.24C262.458 103.307 262.158 104.2 261.558 104.92C260.971 105.64 260.118 106.12 258.998 106.36L262.518 112H259.398ZM254.858 104.56H257.178C258.791 104.56 259.598 103.847 259.598 102.42C259.598 101.74 259.398 101.213 258.998 100.84C258.611 100.453 258.004 100.26 257.178 100.26H254.858V104.56ZM105.361 235.74C107.121 235.74 108.581 236.193 109.741 237.1C110.901 238.007 111.668 239.24 112.041 240.8H109.081C108.775 240.04 108.295 239.44 107.641 239C107.001 238.56 106.228 238.34 105.321 238.34C104.575 238.34 103.901 238.527 103.301 238.9C102.701 239.273 102.235 239.807 101.901 240.5C101.568 241.193 101.401 242.007 101.401 242.94C101.401 243.86 101.568 244.667 101.901 245.36C102.235 246.053 102.701 246.587 103.301 246.96C103.901 247.333 104.575 247.52 105.321 247.52C106.228 247.52 107.001 247.3 107.641 246.86C108.295 246.42 108.775 245.82 109.081 245.06H112.041C111.668 246.62 110.901 247.853 109.741 248.76C108.581 249.667 107.121 250.12 105.361 250.12C104.015 250.12 102.821 249.82 101.781 249.22C100.755 248.607 99.9545 247.753 99.3812 246.66C98.8212 245.567 98.5412 244.327 98.5412 242.94C98.5412 241.54 98.8212 240.293 99.3812 239.2C99.9545 238.107 100.755 237.26 101.781 236.66C102.808 236.047 104.001 235.74 105.361 235.74ZM120.777 235.68C122.097 235.68 123.29 235.987 124.357 236.6C125.437 237.213 126.284 238.073 126.897 239.18C127.524 240.273 127.837 241.513 127.837 242.9C127.837 244.287 127.524 245.533 126.897 246.64C126.284 247.747 125.437 248.607 124.357 249.22C123.29 249.833 122.097 250.14 120.777 250.14C119.457 250.14 118.257 249.833 117.177 249.22C116.11 248.607 115.264 247.747 114.637 246.64C114.024 245.533 113.717 244.287 113.717 242.9C113.717 241.513 114.024 240.273 114.637 239.18C115.264 238.073 116.11 237.213 117.177 236.6C118.257 235.987 119.457 235.68 120.777 235.68ZM120.777 238.28C119.95 238.28 119.224 238.467 118.597 238.84C117.97 239.213 117.477 239.753 117.117 240.46C116.77 241.153 116.597 241.967 116.597 242.9C116.597 243.833 116.77 244.653 117.117 245.36C117.477 246.053 117.97 246.587 118.597 246.96C119.224 247.333 119.95 247.52 120.777 247.52C121.604 247.52 122.33 247.333 122.957 246.96C123.584 246.587 124.07 246.053 124.417 245.36C124.777 244.653 124.957 243.833 124.957 242.9C124.957 241.967 124.777 241.153 124.417 240.46C124.07 239.753 123.584 239.213 122.957 238.84C122.33 238.467 121.604 238.28 120.777 238.28ZM142.378 242.92C142.378 244.32 142.084 245.553 141.498 246.62C140.911 247.687 140.058 248.52 138.938 249.12C137.831 249.707 136.511 250 134.978 250H129.958V235.88H134.978C136.511 235.88 137.831 236.173 138.938 236.76C140.058 237.333 140.911 238.153 141.498 239.22C142.084 240.273 142.378 241.507 142.378 242.92ZM134.738 247.48C136.258 247.48 137.431 247.08 138.258 246.28C139.098 245.48 139.518 244.36 139.518 242.92C139.518 241.467 139.098 240.34 138.258 239.54C137.431 238.74 136.258 238.34 134.738 238.34H132.778V247.48H134.738ZM147.309 238.12V241.78H152.309V243.94H147.309V247.74H152.909V250H144.489V235.88H152.909V238.12H147.309ZM162.172 235.88V250H159.352V235.88H162.172ZM176.683 250H173.863L167.543 240.4V250H164.723V235.88H167.543L173.863 245.56V235.88H176.683V250ZM193.191 235.88V238.12H189.291V250H186.471V238.12H182.591V235.88H193.191ZM206.443 235.88V250H203.603V243.86H197.563V250H194.743V235.88H197.563V241.6H203.603V235.88H206.443ZM211.821 235.88V250H209.001V235.88H211.821ZM224.072 246.14C224.072 246.86 223.892 247.527 223.532 248.14C223.172 248.74 222.638 249.227 221.932 249.6C221.225 249.96 220.365 250.14 219.352 250.14C218.352 250.14 217.458 249.973 216.672 249.64C215.885 249.293 215.252 248.8 214.772 248.16C214.305 247.52 214.038 246.773 213.972 245.92H216.972C217.038 246.493 217.265 246.973 217.652 247.36C218.052 247.733 218.578 247.92 219.232 247.92C219.818 247.92 220.265 247.767 220.572 247.46C220.892 247.14 221.052 246.733 221.052 246.24C221.052 245.8 220.925 245.44 220.672 245.16C220.418 244.867 220.098 244.633 219.712 244.46C219.325 244.287 218.792 244.087 218.112 243.86C217.232 243.567 216.512 243.28 215.952 243C215.392 242.707 214.912 242.287 214.512 241.74C214.125 241.193 213.932 240.48 213.932 239.6C213.932 238.387 214.365 237.433 215.232 236.74C216.112 236.033 217.272 235.68 218.712 235.68C220.205 235.68 221.392 236.04 222.272 236.76C223.165 237.48 223.672 238.44 223.792 239.64H220.752C220.672 239.133 220.458 238.72 220.112 238.4C219.765 238.067 219.292 237.9 218.692 237.9C218.172 237.9 217.752 238.04 217.432 238.32C217.112 238.587 216.952 238.98 216.952 239.5C216.952 239.913 217.072 240.26 217.312 240.54C217.565 240.807 217.878 241.027 218.252 241.2C218.638 241.373 219.158 241.567 219.812 241.78C220.718 242.1 221.452 242.4 222.012 242.68C222.585 242.96 223.072 243.38 223.472 243.94C223.872 244.5 224.072 245.233 224.072 246.14ZM237.045 235.74C238.765 235.74 240.191 236.167 241.325 237.02C242.458 237.86 243.185 239 243.505 240.44H240.545C240.265 239.8 239.818 239.293 239.205 238.92C238.605 238.533 237.891 238.34 237.065 238.34C236.251 238.34 235.531 238.527 234.905 238.9C234.278 239.273 233.791 239.807 233.445 240.5C233.098 241.193 232.925 242.007 232.925 242.94C232.925 244.42 233.318 245.573 234.105 246.4C234.905 247.227 235.991 247.64 237.365 247.64C238.378 247.64 239.245 247.34 239.965 246.74C240.698 246.14 241.171 245.307 241.385 244.24H236.605V242.22H243.745V244.94C243.545 245.873 243.151 246.733 242.565 247.52C241.991 248.307 241.231 248.94 240.285 249.42C239.351 249.887 238.278 250.12 237.065 250.12C235.678 250.12 234.451 249.82 233.385 249.22C232.331 248.607 231.511 247.76 230.925 246.68C230.351 245.587 230.065 244.34 230.065 242.94C230.065 241.54 230.351 240.3 230.925 239.22C231.511 238.127 232.331 237.273 233.385 236.66C234.438 236.047 235.658 235.74 237.045 235.74ZM253.216 250L249.916 244.5H248.676V250H245.856V235.88H251.236C252.876 235.88 254.123 236.28 254.976 237.08C255.843 237.88 256.276 238.933 256.276 240.24C256.276 241.307 255.976 242.2 255.376 242.92C254.79 243.64 253.936 244.12 252.816 244.36L256.336 250H253.216ZM248.676 242.56H250.996C252.61 242.56 253.416 241.847 253.416 240.42C253.416 239.74 253.216 239.213 252.816 238.84C252.43 238.453 251.823 238.26 250.996 238.26H248.676V242.56ZM261 238.12V241.78H266V243.94H261V247.74H266.6V250H258.18V235.88H266.6V238.12H261ZM280.068 235.88L275.288 245.06V250H272.448V245.06L267.648 235.88H270.888L273.888 242.06L276.888 235.88H280.068ZM173.382 277.16H167.722L166.722 280H163.742L168.942 266.04H172.162L177.342 280H174.362L173.382 277.16ZM172.622 275.02L170.542 269.06L168.462 275.02H172.622ZM186.224 280L182.924 274.5H181.684V280H178.864V265.88H184.244C185.884 265.88 187.131 266.28 187.984 267.08C188.851 267.88 189.284 268.933 189.284 270.24C189.284 271.307 188.984 272.2 188.384 272.92C187.797 273.64 186.944 274.12 185.824 274.36L189.344 280H186.224ZM181.684 272.56H184.004C185.617 272.56 186.424 271.847 186.424 270.42C186.424 269.74 186.224 269.213 185.824 268.84C185.437 268.453 184.831 268.26 184.004 268.26H181.684V272.56ZM194.008 268.12V271.78H199.008V273.94H194.008V277.74H199.608V280H191.188V265.88H199.608V268.12H194.008ZM210.296 277.16H204.636L203.636 280H200.656L205.856 266.04H209.076L214.256 280H211.276L210.296 277.16ZM209.536 275.02L207.456 269.06L205.376 275.02H209.536Z" fill="#38363C"/>
<path fill-rule="evenodd" clip-rule="evenodd" d="M201.562 165C208.5 165 213 169.5 213 176.438V201.562C213 208.5 208.5 213 201.562 213H176.438C169.5 213 165 208.5 165 201.562V176.438C165 169.5 169.5 165 176.438 165H201.562Z" fill="#F4333D"/>
<mask id="mask0" mask-type="alpha" maskUnits="userSpaceOnUse" x="185" y="177" width="9" height="24">
<path fill-rule="evenodd" clip-rule="evenodd" d="M185 177.001H193.776V200.995H185V177.001Z" fill="white"/>
</mask>
<g mask="url(#mask0)">
<path fill-rule="evenodd" clip-rule="evenodd" d="M184.999 200.994H193.775L191.908 186.476C190.507 186.897 188.266 186.897 186.866 186.476L184.999 200.994ZM189.387 185.122C187.1 185.122 185.326 183.349 185.326 181.061C185.326 178.774 187.1 177 189.387 177C191.675 177 193.448 178.774 193.448 181.061C193.448 183.349 191.675 185.122 189.387 185.122V185.122Z" fill="white"/>
</g>
<mask id="mask1" mask-type="alpha" maskUnits="userSpaceOnUse" x="129" y="308" width="13" height="16">
<path fill-rule="evenodd" clip-rule="evenodd" d="M129 308.116H141.637V323.496H129V308.116Z" fill="white"/>
</mask>
<g mask="url(#mask1)">
<path fill-rule="evenodd" clip-rule="evenodd" d="M135.67 323.496C139.385 323.496 141.637 321.544 141.637 318.498C141.637 316.368 140.35 314.919 137.688 314.327L135.085 313.736C134.09 313.499 133.563 313.174 133.563 312.582C133.563 311.991 134.061 311.606 135.172 311.606C136.518 311.606 137.922 312.257 138.888 313.144L141.082 309.891C140.028 308.944 137.864 308.116 135.172 308.116C131.691 308.116 129.351 309.861 129.351 312.819C129.351 314.978 130.55 316.546 133.095 317.137L135.699 317.758C136.986 318.054 137.396 318.439 137.396 318.941C137.396 319.592 136.869 319.947 135.67 319.947C134.266 319.947 132.569 319.356 131.194 318.173L129 321.426C130.024 322.372 132.364 323.496 135.67 323.496" fill="#F4333D"/>
</g>
<mask id="mask2" mask-type="alpha" maskUnits="userSpaceOnUse" x="143" y="308" width="6" height="6">
<path fill-rule="evenodd" clip-rule="evenodd" d="M143.423 308H148.513V313.146H143.423V308Z" fill="white"/>
</mask>
<g mask="url(#mask2)">
<path fill-rule="evenodd" clip-rule="evenodd" d="M145.968 313.146C147.401 313.146 148.513 312.023 148.513 310.573C148.513 309.124 147.401 308 145.968 308C144.535 308 143.423 309.124 143.423 310.573C143.423 312.023 144.535 313.146 145.968 313.146" fill="black"/>
</g>
<path fill-rule="evenodd" clip-rule="evenodd" d="M143.219 323.202H148.718L147.548 314.004C146.671 314.27 145.266 314.27 144.389 314.004L143.219 323.202Z" fill="black"/>
<path fill-rule="evenodd" clip-rule="evenodd" d="M151.292 323.201H155.68V315.245C155.68 313.293 156.616 312.081 158.43 312.081C160.156 312.081 161.063 313.086 161.063 315.245V323.201H165.45V314.121C165.45 310.158 163.491 308.117 160.126 308.117C158.196 308.117 156.733 308.886 155.68 310.395V309.448C155.68 308.797 155.3 308.413 154.656 308.413H151.292V323.201Z" fill="#F4333D"/>
<path fill-rule="evenodd" clip-rule="evenodd" d="M175.573 318.884C173.729 318.884 172.238 317.376 172.238 315.453C172.238 313.531 173.729 312.022 175.573 312.022C177.562 312.022 178.995 313.531 178.995 315.453C178.995 317.376 177.562 318.884 175.573 318.884V318.884ZM179.872 308.413C179.228 308.413 178.848 308.797 178.848 309.448V310.335C177.853 308.827 176.274 308.117 174.402 308.117C170.862 308.117 167.791 311.252 167.791 315.452C167.791 319.652 170.862 322.787 174.402 322.787C176.274 322.787 177.795 322.196 178.848 320.865V321.811C178.848 323.823 177.532 325.272 175.279 325.272C173.261 325.272 171.71 324.414 170.745 323.468L168.463 326.899C169.926 328.23 172.354 328.999 175.279 328.999C179.667 328.999 183.236 326.78 183.236 321.22V308.413H179.872Z" fill="#F4333D"/>
<path fill-rule="evenodd" clip-rule="evenodd" d="M194.382 319.594C192.305 319.594 190.696 318.026 190.696 315.808C190.696 313.59 192.305 312.022 194.382 312.022C196.43 312.022 197.98 313.59 197.98 315.808C197.98 318.026 196.43 319.594 194.382 319.594M195.553 308.117C193.564 308.117 191.925 308.827 190.843 310.336V309.448C190.843 308.798 190.463 308.413 189.819 308.413H186.455V328.644H190.843V321.575C191.984 322.906 193.564 323.497 195.553 323.497C199.356 323.497 202.427 320.362 202.427 315.807C202.427 311.252 199.356 308.117 195.553 308.117" fill="#F4333D"/>
<path fill-rule="evenodd" clip-rule="evenodd" d="M212.345 319.594C210.297 319.594 208.747 318.026 208.747 315.808C208.747 313.59 210.297 312.022 212.345 312.022C214.422 312.022 216.031 313.59 216.031 315.808C216.031 318.026 214.422 319.594 212.345 319.594V319.594ZM216.909 308.413C216.265 308.413 215.885 308.798 215.885 309.448V310.336C214.803 308.827 213.164 308.117 211.175 308.117C207.372 308.117 204.301 311.252 204.301 315.807C204.301 320.362 207.372 323.497 211.175 323.497C213.164 323.497 214.803 322.787 215.885 321.279V323.201H220.273V308.413H216.909Z" fill="#F4333D"/>
<path fill-rule="evenodd" clip-rule="evenodd" d="M229.167 323.497C232.882 323.497 235.134 321.545 235.134 318.499C235.134 316.369 233.847 314.92 231.185 314.328L228.581 313.737C227.587 313.5 227.06 313.175 227.06 312.583C227.06 311.992 227.558 311.607 228.669 311.607C230.015 311.607 231.419 312.258 232.384 313.145L234.578 309.892C233.525 308.945 231.36 308.117 228.669 308.117C225.188 308.117 222.848 309.862 222.848 312.82C222.848 314.979 224.047 316.547 226.592 317.138L229.196 317.759C230.483 318.055 230.892 318.44 230.892 318.942C230.892 319.593 230.366 319.948 229.167 319.948C227.762 319.948 226.066 319.357 224.691 318.173L222.497 321.427C223.521 322.373 225.861 323.497 229.167 323.497" fill="#F4333D"/>
<path fill-rule="evenodd" clip-rule="evenodd" d="M243.032 323.497C246.747 323.497 249 321.545 249 318.499C249 316.369 247.713 314.92 245.051 314.328L242.447 313.737C241.453 313.5 240.926 313.175 240.926 312.583C240.926 311.992 241.424 311.607 242.535 311.607C243.881 311.607 245.285 312.258 246.25 313.145L248.444 309.892C247.391 308.945 245.226 308.117 242.535 308.117C239.054 308.117 236.714 309.862 236.714 312.82C236.714 314.979 237.913 316.547 240.458 317.138L243.062 317.759C244.349 318.055 244.758 318.44 244.758 318.942C244.758 319.593 244.232 319.948 243.032 319.948C241.628 319.948 239.932 319.357 238.557 318.173L236.363 321.427C237.387 322.373 239.727 323.497 243.032 323.497" fill="#F4333D"/>
</svg>
