<svg width="168" height="60" viewBox="0 0 168 60" fill="none" xmlns="http://www.w3.org/2000/svg">
<path d="M160 0H8C3.58172 0 0 3.58172 0 8V52C0 56.4183 3.58172 60 8 60H160C164.418 60 168 56.4183 168 52V8C168 3.58172 164.418 0 160 0Z" fill="#F4333D"/>
<path d="M19.5602 28.9998L16.9322 24.2298H16.1942V28.9998H13.1162V16.3638H18.2822C19.2782 16.3638 20.1242 16.5378 20.8202 16.8858C21.5282 17.2338 22.0562 17.7138 22.4042 18.3258C22.7522 18.9258 22.9262 19.5978 22.9262 20.3418C22.9262 21.1818 22.6862 21.9318 22.2062 22.5918C21.7382 23.2518 21.0422 23.7198 20.1182 23.9958L23.0342 28.9998H19.5602ZM16.1942 22.0518H18.1022C18.6662 22.0518 19.0862 21.9138 19.3622 21.6378C19.6502 21.3618 19.7942 20.9718 19.7942 20.4678C19.7942 19.9878 19.6502 19.6098 19.3622 19.3338C19.0862 19.0578 18.6662 18.9198 18.1022 18.9198H16.1942V22.0518Z" fill="white"/>
<path d="M34.3261 23.816C34.3261 24.104 34.3081 24.404 34.2721 24.716H27.3061C27.3541 25.34 27.5521 25.82 27.9001 26.156C28.2601 26.48 28.6981 26.642 29.2141 26.642C29.9821 26.642 30.5161 26.318 30.8161 25.67H34.0921C33.9241 26.33 33.6181 26.924 33.1741 27.452C32.7421 27.98 32.1961 28.394 31.5361 28.694C30.8761 28.994 30.1381 29.144 29.3221 29.144C28.3381 29.144 27.4621 28.934 26.6941 28.514C25.9261 28.094 25.3261 27.494 24.8941 26.714C24.4621 25.934 24.2461 25.022 24.2461 23.978C24.2461 22.934 24.4561 22.022 24.8761 21.242C25.3081 20.462 25.9081 19.862 26.6761 19.442C27.4441 19.022 28.3261 18.812 29.3221 18.812C30.2941 18.812 31.1581 19.016 31.9141 19.424C32.6701 19.832 33.2581 20.414 33.6781 21.17C34.1101 21.926 34.3261 22.808 34.3261 23.816ZM31.1761 23.006C31.1761 22.478 30.9961 22.058 30.6361 21.746C30.2761 21.434 29.8261 21.278 29.2861 21.278C28.7701 21.278 28.3321 21.428 27.9721 21.728C27.6241 22.028 27.4081 22.454 27.3241 23.006H31.1761Z" fill="white"/>
<path d="M41.5479 26.3898V28.9998H39.9819C38.8659 28.9998 37.9959 28.7298 37.3719 28.1898C36.7479 27.6378 36.4359 26.7438 36.4359 25.5078V21.5118H35.2119V18.9558H36.4359V16.5078H39.5139V18.9558H41.5299V21.5118H39.5139V25.5438C39.5139 25.8438 39.5859 26.0598 39.7299 26.1918C39.8739 26.3238 40.1139 26.3898 40.4499 26.3898H41.5479Z" fill="white"/>
<path d="M46.3407 20.6301C46.7007 20.0781 47.1507 19.6461 47.6907 19.3341C48.2307 19.0101 48.8307 18.8481 49.4907 18.8481V22.1061H48.6447C47.8767 22.1061 47.3007 22.2741 46.9167 22.6101C46.5327 22.9341 46.3407 23.5101 46.3407 24.3381V29.0001H43.2627V18.9561H46.3407V20.6301Z" fill="white"/>
<path d="M52.5098 17.912C51.9698 17.912 51.5258 17.756 51.1778 17.444C50.8418 17.12 50.6738 16.724 50.6738 16.256C50.6738 15.776 50.8418 15.38 51.1778 15.068C51.5258 14.744 51.9698 14.582 52.5098 14.582C53.0378 14.582 53.4698 14.744 53.8058 15.068C54.1538 15.38 54.3278 15.776 54.3278 16.256C54.3278 16.724 54.1538 17.12 53.8058 17.444C53.4698 17.756 53.0378 17.912 52.5098 17.912ZM54.0398 18.956V29H50.9618V18.956H54.0398Z" fill="white"/>
<path d="M65.7382 23.816C65.7382 24.104 65.7202 24.404 65.6842 24.716H58.7182C58.7662 25.34 58.9642 25.82 59.3122 26.156C59.6722 26.48 60.1102 26.642 60.6262 26.642C61.3942 26.642 61.9282 26.318 62.2282 25.67H65.5042C65.3362 26.33 65.0302 26.924 64.5862 27.452C64.1542 27.98 63.6082 28.394 62.9482 28.694C62.2882 28.994 61.5502 29.144 60.7342 29.144C59.7502 29.144 58.8742 28.934 58.1062 28.514C57.3382 28.094 56.7382 27.494 56.3062 26.714C55.8742 25.934 55.6582 25.022 55.6582 23.978C55.6582 22.934 55.8682 22.022 56.2882 21.242C56.7202 20.462 57.3202 19.862 58.0882 19.442C58.8562 19.022 59.7382 18.812 60.7342 18.812C61.7062 18.812 62.5702 19.016 63.3262 19.424C64.0822 19.832 64.6702 20.414 65.0902 21.17C65.5222 21.926 65.7382 22.808 65.7382 23.816ZM62.5882 23.006C62.5882 22.478 62.4082 22.058 62.0482 21.746C61.6882 21.434 61.2382 21.278 60.6982 21.278C60.1822 21.278 59.7442 21.428 59.3842 21.728C59.0362 22.028 58.8202 22.454 58.7362 23.006H62.5882Z" fill="white"/>
<path d="M71.8802 26.1201L74.0582 18.9561H77.3342L73.7702 29.0001H69.9722L66.4082 18.9561H69.7022L71.8802 26.1201Z" fill="white"/>
<path d="M88.0976 23.816C88.0976 24.104 88.0796 24.404 88.0436 24.716H81.0776C81.1256 25.34 81.3236 25.82 81.6716 26.156C82.0316 26.48 82.4696 26.642 82.9856 26.642C83.7536 26.642 84.2876 26.318 84.5876 25.67H87.8636C87.6956 26.33 87.3896 26.924 86.9456 27.452C86.5136 27.98 85.9676 28.394 85.3076 28.694C84.6476 28.994 83.9096 29.144 83.0936 29.144C82.1096 29.144 81.2336 28.934 80.4656 28.514C79.6976 28.094 79.0976 27.494 78.6656 26.714C78.2336 25.934 78.0176 25.022 78.0176 23.978C78.0176 22.934 78.2276 22.022 78.6476 21.242C79.0796 20.462 79.6796 19.862 80.4476 19.442C81.2156 19.022 82.0976 18.812 83.0936 18.812C84.0656 18.812 84.9296 19.016 85.6856 19.424C86.4416 19.832 87.0296 20.414 87.4496 21.17C87.8816 21.926 88.0976 22.808 88.0976 23.816ZM84.9476 23.006C84.9476 22.478 84.7676 22.058 84.4076 21.746C84.0476 21.434 83.5976 21.278 83.0576 21.278C82.5416 21.278 82.1036 21.428 81.7436 21.728C81.3956 22.028 81.1796 22.454 81.0956 23.006H84.9476Z" fill="white"/>
<path d="M107.846 16.3638V28.9998H104.768V21.4218L101.942 28.9998H99.4581L96.6141 21.4038V28.9998H93.5361V16.3638H97.1721L100.718 25.1118L104.228 16.3638H107.846Z" fill="white"/>
<path d="M120.319 18.9561L114.019 33.7701H110.707L113.011 28.6581L108.925 18.9561H112.363L114.685 25.2381L116.989 18.9561H120.319Z" fill="white"/>
<path d="M122.98 17.912C122.44 17.912 121.996 17.756 121.648 17.444C121.312 17.12 121.144 16.724 121.144 16.256C121.144 15.776 121.312 15.38 121.648 15.068C121.996 14.744 122.44 14.582 122.98 14.582C123.508 14.582 123.94 14.744 124.276 15.068C124.624 15.38 124.798 15.776 124.798 16.256C124.798 16.724 124.624 17.12 124.276 17.444C123.94 17.756 123.508 17.912 122.98 17.912ZM124.51 18.956V29H121.432V18.956H124.51Z" fill="white"/>
<path d="M132.861 18.8481C134.037 18.8481 134.973 19.2321 135.669 20.0001C136.377 20.7561 136.731 21.8001 136.731 23.1321V29.0001H133.671V23.5461C133.671 22.8741 133.497 22.3521 133.149 21.9801C132.801 21.6081 132.333 21.4221 131.745 21.4221C131.157 21.4221 130.689 21.6081 130.341 21.9801C129.993 22.3521 129.819 22.8741 129.819 23.5461V29.0001H126.741V18.9561H129.819V20.2881C130.131 19.8441 130.551 19.4961 131.079 19.2441C131.607 18.9801 132.201 18.8481 132.861 18.8481Z" fill="white"/>
<path d="M143.91 21.5122H142.254V29.0002H139.176V21.5122H138.06V18.9562H139.176V18.6682C139.176 17.4322 139.53 16.4962 140.238 15.8602C140.946 15.2122 141.984 14.8882 143.352 14.8882C143.58 14.8882 143.748 14.8942 143.856 14.9062V17.5162C143.268 17.4802 142.854 17.5642 142.614 17.7682C142.374 17.9722 142.254 18.3382 142.254 18.8662V18.9562H143.91V21.5122Z" fill="white"/>
<path d="M149.928 29.144C148.944 29.144 148.056 28.934 147.264 28.514C146.484 28.094 145.866 27.494 145.41 26.714C144.966 25.934 144.744 25.022 144.744 23.978C144.744 22.946 144.972 22.04 145.428 21.26C145.884 20.468 146.508 19.862 147.3 19.442C148.092 19.022 148.98 18.812 149.964 18.812C150.948 18.812 151.836 19.022 152.628 19.442C153.42 19.862 154.044 20.468 154.5 21.26C154.956 22.04 155.184 22.946 155.184 23.978C155.184 25.01 154.95 25.922 154.482 26.714C154.026 27.494 153.396 28.094 152.592 28.514C151.8 28.934 150.912 29.144 149.928 29.144ZM149.928 26.48C150.516 26.48 151.014 26.264 151.422 25.832C151.842 25.4 152.052 24.782 152.052 23.978C152.052 23.174 151.848 22.556 151.44 22.124C151.044 21.692 150.552 21.476 149.964 21.476C149.364 21.476 148.866 21.692 148.47 22.124C148.074 22.544 147.876 23.162 147.876 23.978C147.876 24.782 148.068 25.4 148.452 25.832C148.848 26.264 149.34 26.48 149.928 26.48Z" fill="white"/>
<path d="M39.846 44.1422C41.4255 44.1422 42.386 43.3169 42.386 42.0077C42.386 41.1113 41.8382 40.4994 40.7069 40.2503L39.597 40.0013C39.1772 39.9017 38.9566 39.7665 38.9566 39.5175C38.9566 39.2685 39.163 39.112 39.6681 39.112C40.2537 39.1324 40.8132 39.3592 41.2476 39.7523L42.1797 38.3862C41.4464 37.8733 40.5615 37.6226 39.6681 37.6747C38.1882 37.6747 37.1921 38.3862 37.1921 39.6456C37.1824 40.0926 37.3407 40.527 37.6358 40.863C37.9309 41.1989 38.3413 41.4119 38.7859 41.4599L39.8887 41.7231C40.4365 41.8441 40.6002 42.0078 40.6002 42.2212C40.6002 42.4346 40.3796 42.641 39.8887 42.641C39.1929 42.6273 38.5226 42.3763 37.989 41.9295L37 43.2529C37.8142 43.8756 38.8221 44.1906 39.846 44.1422Z" fill="white"/>
<path d="M44.2281 39.7733C44.4422 39.7733 44.6516 39.7097 44.8296 39.5905C45.0076 39.4714 45.1462 39.3021 45.2279 39.104C45.3095 38.906 45.3305 38.6882 45.2882 38.4782C45.2459 38.2682 45.1422 38.0756 44.9902 37.9246C44.8383 37.7736 44.6449 37.6712 44.4346 37.6303C44.2244 37.5893 44.0067 37.6118 43.8092 37.6947C43.6117 37.7777 43.4433 37.9174 43.3254 38.0962C43.2074 38.275 43.1452 38.4847 43.1466 38.6989C43.1446 38.8412 43.1713 38.9823 43.2251 39.114C43.2788 39.2457 43.3585 39.3652 43.4595 39.4655C43.5604 39.5657 43.6804 39.6446 43.8125 39.6975C43.9445 39.7504 44.0858 39.7762 44.2281 39.7733Z" fill="white"/>
<path d="M43.0615 44.0002H45.3952L44.9043 40.1367C44.4633 40.2506 44.0006 40.2506 43.5596 40.1367L43.0615 44.0002Z" fill="white"/>
<path d="M46.4912 43.9984H48.3837V40.6544C48.3837 39.8362 48.7822 39.331 49.5506 39.331C50.319 39.331 50.6676 39.7508 50.6676 40.6544V43.9984H52.5318V40.1848C52.5318 38.5199 51.6993 37.6661 50.2763 37.6661C49.9057 37.65 49.5371 37.7292 49.2057 37.8961C48.8744 38.063 48.5914 38.3121 48.3837 38.6195V38.2211C48.3892 38.1627 48.3818 38.1039 48.3619 38.0487C48.342 37.9936 48.3102 37.9435 48.2688 37.902C48.2273 37.8606 48.1773 37.8288 48.1221 37.8089C48.067 37.789 48.0081 37.7816 47.9497 37.7871H46.5267L46.4912 43.9984Z" fill="white"/>
<path d="M58.6287 37.7884C58.5703 37.7829 58.5115 37.7903 58.4563 37.8102C58.4012 37.8301 58.3511 37.8619 58.3096 37.9033C58.2682 37.9448 58.2364 37.9949 58.2165 38.05C58.1967 38.1052 58.1892 38.164 58.1947 38.2224V38.5995C57.9876 38.2945 57.7051 38.0484 57.3747 37.8851C57.0443 37.7218 56.6772 37.6468 56.3092 37.6674C55.5432 37.7411 54.8322 38.0975 54.3148 38.6671C53.7973 39.2367 53.5107 39.9787 53.5107 40.7482C53.5107 41.5177 53.7973 42.2597 54.3148 42.8293C54.8322 43.3989 55.5432 43.7553 56.3092 43.829C56.6651 43.8514 57.0213 43.7897 57.3489 43.6487C57.6765 43.5078 57.9662 43.2917 58.1947 43.0179V43.4305C58.1951 43.6255 58.1555 43.8184 58.0782 43.9973C58.001 44.1763 57.8879 44.3375 57.7458 44.4709C57.6037 44.6043 57.4357 44.7071 57.2522 44.773C57.0687 44.8388 56.8737 44.8662 56.6792 44.8535C55.9806 44.8671 55.3033 44.6125 54.7866 44.142L53.8119 45.565C54.6423 46.1926 55.6684 46.5052 56.7077 46.4473C58.5718 46.4473 60.0873 45.5152 60.0873 43.1744V37.7884H58.6287ZM56.8073 42.1854C56.5258 42.1854 56.2507 42.102 56.0167 41.9456C55.7827 41.7892 55.6003 41.567 55.4926 41.307C55.3849 41.047 55.3567 40.7608 55.4116 40.4848C55.4665 40.2088 55.6021 39.9552 55.8011 39.7562C56.0001 39.5572 56.2536 39.4217 56.5297 39.3668C56.8057 39.3119 57.0918 39.34 57.3518 39.4478C57.6119 39.5555 57.8341 39.7378 57.9904 39.9719C58.1468 40.2059 58.2303 40.481 58.2303 40.7624C58.2303 41.1398 58.0803 41.5018 57.8135 41.7686C57.5466 42.0355 57.1847 42.1854 56.8073 42.1854Z" fill="white"/>
<path d="M65.2965 37.6663C64.917 37.6495 64.5391 37.7257 64.1956 37.8881C63.8521 38.0505 63.5535 38.2944 63.3257 38.5984V38.2213C63.3312 38.1629 63.3238 38.1041 63.304 38.0489C63.2841 37.9938 63.2522 37.9437 63.2108 37.9022C63.1693 37.8608 63.1193 37.829 63.0642 37.8091C63.009 37.7893 62.9502 37.7818 62.8918 37.7873H61.4688V46.2755H63.3257V43.3156C63.573 43.59 63.8781 43.8063 64.2188 43.949C64.5594 44.0917 64.9275 44.1573 65.2965 44.141C65.7035 44.1306 66.1042 44.0375 66.4741 43.8675C66.844 43.6974 67.1754 43.4539 67.4482 43.1518C67.7211 42.8497 67.9296 42.4952 68.0612 42.1099C68.1928 41.7247 68.2448 41.3167 68.2138 40.9108C68.2468 40.5037 68.1965 40.0942 68.0658 39.7073C67.9351 39.3203 67.7269 38.9641 67.4538 38.6604C67.1808 38.3567 66.8486 38.1119 66.4777 37.941C66.1068 37.7701 65.7048 37.6766 65.2965 37.6663ZM64.7986 42.4832C64.4807 42.496 64.1661 42.4133 63.8955 42.2458C63.625 42.0783 63.4109 41.8337 63.2806 41.5434C63.1503 41.2531 63.1099 40.9304 63.1645 40.617C63.2192 40.3035 63.3664 40.0136 63.5872 39.7845C63.8081 39.5555 64.0923 39.3977 64.4036 39.3317C64.7149 39.2656 65.0388 39.2942 65.3336 39.4139C65.6285 39.5335 65.8809 39.7386 66.0581 40.0029C66.2354 40.2671 66.3294 40.5784 66.3282 40.8965C66.339 41.1029 66.3072 41.3093 66.2349 41.5029C66.1625 41.6965 66.0513 41.8731 65.9079 42.0219C65.7644 42.1707 65.5919 42.2884 65.401 42.3677C65.2102 42.4471 65.0052 42.4864 64.7986 42.4832Z" fill="white"/>
<path d="M74.3673 37.7881C74.3089 37.7826 74.2501 37.7901 74.1949 37.8099C74.1398 37.8298 74.0897 37.8616 74.0482 37.903C74.0068 37.9445 73.975 37.9946 73.9551 38.0497C73.9352 38.1049 73.9278 38.1637 73.9333 38.2221V38.5992C73.7021 38.29 73.3977 38.043 73.0475 37.8803C72.6974 37.7176 72.3123 37.6444 71.9269 37.6671C71.5199 37.6775 71.1193 37.7706 70.7494 37.9406C70.3795 38.1107 70.048 38.3542 69.7752 38.6563C69.5023 38.9584 69.2938 39.3129 69.1622 39.6982C69.0306 40.0834 68.9787 40.4914 69.0097 40.8973C68.9787 41.3033 69.0306 41.7113 69.1622 42.0965C69.2938 42.4818 69.5023 42.8362 69.7752 43.1384C70.048 43.4405 70.3795 43.684 70.7494 43.854C71.1193 44.0241 71.5199 44.1171 71.9269 44.1275C72.3121 44.1484 72.6965 44.0743 73.0463 43.9118C73.3962 43.7493 73.7008 43.5033 73.9333 43.1955V43.9995H75.7974V37.7881H74.3673ZM72.4249 42.484C72.0215 42.457 71.6435 42.2777 71.3674 41.9825C71.0912 41.6872 70.9376 41.298 70.9376 40.8938C70.9376 40.4895 71.0912 40.1004 71.3674 39.8051C71.6435 39.5099 72.0215 39.3306 72.4249 39.3036C72.8283 39.3306 73.2063 39.5099 73.4825 39.8051C73.7586 40.1004 73.9122 40.4895 73.9122 40.8938C73.9122 41.298 73.7586 41.6872 73.4825 41.9825C73.2063 42.2777 72.8283 42.457 72.4249 42.484Z" fill="white"/>
<path d="M79.5694 44.1422C81.1489 44.1422 82.1094 43.3169 82.1094 42.0077C82.1094 41.1113 81.5616 40.4994 80.4303 40.2504L79.3275 40.0013C78.9006 39.9017 78.68 39.7665 78.68 39.5175C78.68 39.2685 78.8863 39.112 79.3915 39.112C79.9771 39.1324 80.5366 39.3592 80.971 39.7523L81.9031 38.3862C81.1698 37.8733 80.2849 37.6226 79.3915 37.6747C77.9116 37.6747 76.9155 38.3862 76.9155 39.6456C76.9058 40.0926 77.0641 40.527 77.3592 40.863C77.6543 41.1989 78.0647 41.4119 78.5092 41.4599L79.6121 41.7231C80.1599 41.8441 80.3236 42.0078 80.3236 42.2212C80.3236 42.4346 80.0959 42.641 79.6121 42.641C78.9162 42.6273 78.246 42.3763 77.7124 41.9295L76.7803 43.2956C77.5964 43.9132 78.6042 44.2231 79.6263 44.1707L79.5694 44.1422Z" fill="white"/>
<path d="M85.46 44.1427C87.0395 44.1427 88 43.3173 88 42.0082C88 41.1117 87.4522 40.4998 86.3209 40.2508L85.2109 40.0017C84.7912 39.9021 84.5706 39.767 84.5706 39.5179C84.5706 39.2689 84.7769 39.1124 85.2821 39.1124C85.8657 39.132 86.4232 39.359 86.8545 39.7527L87.7866 38.3866C87.0567 37.8721 86.1735 37.6212 85.2821 37.6752C83.8022 37.6752 82.8061 38.3866 82.8061 39.646C82.7964 40.093 82.9547 40.5274 83.2498 40.8634C83.5449 41.1993 83.9553 41.4123 84.3998 41.4603L85.5026 41.7236C86.0505 41.8445 86.2141 42.0082 86.2141 42.2216C86.2141 42.4351 85.9936 42.6414 85.5026 42.6414C84.8068 42.6277 84.1365 42.3767 83.6029 41.9299L82.6709 43.296C83.487 43.9136 84.4948 44.2235 85.5169 44.1711L85.46 44.1427Z" fill="white"/>
<path d="M20.63 38.4204L19.12 44.0004H17.23L16.35 40.3804L15.44 44.0004H13.56L12.04 38.4204H13.75L14.54 42.4104L15.48 38.4204H17.29L18.24 42.3904L19.02 38.4204H20.63Z" fill="white"/>
<path d="M22.1421 37.8402C21.8421 37.8402 21.5954 37.7536 21.4021 37.5802C21.2154 37.4002 21.1221 37.1802 21.1221 36.9202C21.1221 36.6536 21.2154 36.4336 21.4021 36.2602C21.5954 36.0802 21.8421 35.9902 22.1421 35.9902C22.4354 35.9902 22.6754 36.0802 22.8621 36.2602C23.0554 36.4336 23.1521 36.6536 23.1521 36.9202C23.1521 37.1802 23.0554 37.4002 22.8621 37.5802C22.6754 37.7536 22.4354 37.8402 22.1421 37.8402ZM22.9921 38.4202V44.0002H21.2821V38.4202H22.9921Z" fill="white"/>
<path d="M27.3413 42.5501V44.0001H26.4713C25.8513 44.0001 25.368 43.8501 25.0213 43.5501C24.6747 43.2435 24.5013 42.7468 24.5013 42.0601V39.8401H23.8213V38.4201H24.5013V37.0601H26.2113V38.4201H27.3313V39.8401H26.2113V42.0801C26.2113 42.2468 26.2513 42.3668 26.3313 42.4401C26.4113 42.5135 26.5447 42.5501 26.7313 42.5501H27.3413Z" fill="white"/>
<path d="M31.7239 38.3601C32.3639 38.3601 32.8773 38.5735 33.2639 39.0001C33.6506 39.4201 33.8439 40.0001 33.8439 40.7401V44.0001H32.1439V40.9701C32.1439 40.5968 32.0473 40.3068 31.8539 40.1001C31.6606 39.8935 31.4006 39.7901 31.0739 39.7901C30.7473 39.7901 30.4873 39.8935 30.2939 40.1001C30.1006 40.3068 30.0039 40.5968 30.0039 40.9701V44.0001H28.2939V36.6001H30.0039V39.1701C30.1773 38.9235 30.4139 38.7268 30.7139 38.5801C31.0139 38.4335 31.3506 38.3601 31.7239 38.3601Z" fill="white"/>
</svg>
